<svg width="180" height="53" viewBox="0 0 180 53" fill="none" xmlns="http://www.w3.org/2000/svg">
<path d="M173.333 52.7344H6.66667C3.00167 52.7344 0 49.8078 0 46.2344V7.23438C0 3.661 3.00167 0.734378 6.66667 0.734378H173.333C176.998 0.734378 180 3.661 180 7.23438V46.2344C180 49.8078 176.998 52.7344 173.333 52.7344Z" fill="black"/>
<path d="M173.333 1.776C176.42 1.776 178.932 4.22488 178.932 7.23438V46.2344C178.932 49.2439 176.42 51.6928 173.333 51.6928H6.66667C3.58 51.6928 1.06833 49.2439 1.06833 46.2344V7.23438C1.06833 4.22488 3.58 1.776 6.66667 1.776H173.333ZM173.333 0.734378H6.66667C3.00167 0.734378 0 3.661 0 7.23438V46.2344C0 49.8078 3.00167 52.7344 6.66667 52.7344H173.333C176.998 52.7344 180 49.8078 180 46.2344V7.23438C180 3.661 176.998 0.734378 173.333 0.734378Z" fill="#A6A6A6"/>
<path d="M13.9133 10.5348C13.5216 10.9346 13.2949 11.5569 13.2949 12.3629V41.1124C13.2949 41.9184 13.5216 42.5408 13.9133 42.9406L14.0099 43.0283L30.5332 26.9246V26.5443L14.0099 10.4406L13.9133 10.5348Z" fill="url(#paint0_linear_315_12510)"/>
<path d="M36.0349 32.2959L30.5332 26.9253V26.545L36.0415 21.1744L36.1649 21.2443L42.6882 24.8631C44.5499 25.8901 44.5499 27.5801 42.6882 28.6136L36.1649 32.226L36.0349 32.2959Z" fill="url(#paint1_linear_315_12510)"/>
<path d="M36.1647 32.2256L30.5331 26.7347L13.9131 42.9408C14.5314 43.5746 15.5398 43.651 16.6864 43.0172L36.1647 32.2256Z" fill="url(#paint2_linear_315_12510)"/>
<path d="M36.1647 21.2435L16.6864 10.4519C15.5398 9.82463 14.5314 9.901 13.9131 10.5348L30.5331 26.7344L36.1647 21.2435Z" fill="url(#paint3_linear_315_12510)"/>
<path d="M63.2234 14.0506C63.2234 15.1361 62.8901 16.0055 62.2334 16.6538C61.4784 17.4225 60.4951 17.8092 59.2901 17.8092C58.1384 17.8092 57.155 17.416 56.3484 16.6408C55.54 15.8543 55.1367 14.8891 55.1367 13.7337C55.1367 12.5783 55.54 11.6131 56.3484 10.8331C57.155 10.0515 58.1384 9.6582 59.2901 9.6582C59.8634 9.6582 60.41 9.77358 60.9317 9.98808C61.4517 10.2042 61.875 10.4967 62.1817 10.8575L61.4851 11.5432C60.95 10.9273 60.2217 10.6235 59.2901 10.6235C58.4501 10.6235 57.7217 10.9095 57.1034 11.4863C56.4917 12.0648 56.185 12.814 56.185 13.7337C56.185 14.6535 56.4917 15.4091 57.1034 15.9876C57.7217 16.558 58.4501 16.8505 59.2901 16.8505C60.1817 16.8505 60.9317 16.558 61.5234 15.9811C61.9134 15.5992 62.1351 15.0727 62.1934 14.4H59.2901V13.4607H63.1634C63.2101 13.6638 63.2234 13.8605 63.2234 14.0506Z" fill="white" stroke="white" stroke-width="0.16" stroke-miterlimit="10"/>
<path d="M69.3685 10.794H65.7302V13.264H69.0102V14.2033H65.7302V16.6733H69.3685V17.6304H64.7002V9.83691H69.3685V10.794Z" fill="white" stroke="white" stroke-width="0.16" stroke-miterlimit="10"/>
<path d="M73.705 17.6304H72.675V10.794H70.4434V9.83691H75.9384V10.794H73.705V17.6304Z" fill="white" stroke="white" stroke-width="0.16" stroke-miterlimit="10"/>
<path d="M79.915 17.6304V9.83691H80.9434V17.6304H79.915Z" fill="white" stroke="white" stroke-width="0.16" stroke-miterlimit="10"/>
<path d="M85.5019 17.6304H84.4802V10.794H82.2402V9.83691H87.7419V10.794H85.5019V17.6304Z" fill="white" stroke="white" stroke-width="0.16" stroke-miterlimit="10"/>
<path d="M98.1446 16.6278C97.3563 17.416 96.3796 17.8092 95.2146 17.8092C94.0429 17.8092 93.0663 17.416 92.2779 16.6278C91.4913 15.8413 91.0996 14.8761 91.0996 13.7337C91.0996 12.5913 91.4913 11.6261 92.2779 10.8396C93.0663 10.0515 94.0429 9.6582 95.2146 9.6582C96.3729 9.6582 97.3496 10.0515 98.138 10.8461C98.9313 11.6391 99.3229 12.5978 99.3229 13.7337C99.3229 14.8761 98.9313 15.8413 98.1446 16.6278ZM93.0396 15.9746C93.6329 16.558 94.3546 16.8505 95.2146 16.8505C96.0679 16.8505 96.7963 16.558 97.3829 15.9746C97.9746 15.3912 98.2746 14.6421 98.2746 13.7337C98.2746 12.8253 97.9746 12.0762 97.3829 11.4928C96.7963 10.9095 96.0679 10.617 95.2146 10.617C94.3546 10.617 93.6329 10.9095 93.0396 11.4928C92.4479 12.0762 92.1479 12.8253 92.1479 13.7337C92.1479 14.6421 92.4479 15.3912 93.0396 15.9746Z" fill="white" stroke="white" stroke-width="0.16" stroke-miterlimit="10"/>
<path d="M100.769 17.6304V9.83691H102.019L105.905 15.8982H105.95L105.905 14.3999V9.83691H106.934V17.6304H105.86L101.79 11.2702H101.745L101.79 12.7749V17.6304H100.769Z" fill="white" stroke="white" stroke-width="0.16" stroke-miterlimit="10"/>
<path d="M90.8464 29.0127C87.7147 29.0127 85.1564 31.3364 85.1564 34.5425C85.1564 37.7227 87.7147 40.0708 90.8464 40.0708C93.9847 40.0708 96.543 37.7227 96.543 34.5425C96.543 31.3364 93.9847 29.0127 90.8464 29.0127ZM90.8464 37.8933C89.128 37.8933 87.6497 36.5104 87.6497 34.5425C87.6497 32.5487 89.128 31.1902 90.8464 31.1902C92.5647 31.1902 94.0497 32.5487 94.0497 34.5425C94.0497 36.5104 92.5647 37.8933 90.8464 37.8933ZM78.4314 29.0127C75.293 29.0127 72.7414 31.3364 72.7414 34.5425C72.7414 37.7227 75.293 40.0708 78.4314 40.0708C81.568 40.0708 84.1214 37.7227 84.1214 34.5425C84.1214 31.3364 81.568 29.0127 78.4314 29.0127ZM78.4314 37.8933C76.7114 37.8933 75.2281 36.5104 75.2281 34.5425C75.2281 32.5487 76.7114 31.1902 78.4314 31.1902C80.1497 31.1902 81.6281 32.5487 81.6281 34.5425C81.6281 36.5104 80.1497 37.8933 78.4314 37.8933ZM63.6581 30.7075V33.0573H69.4131C69.2447 34.3703 68.7947 35.3355 68.1047 36.0083C67.2647 36.8208 65.9564 37.7227 63.6581 37.7227C60.1164 37.7227 57.3431 34.9358 57.3431 31.4827C57.3431 28.0295 60.1164 25.2427 63.6581 25.2427C65.5731 25.2427 66.9664 25.9723 67.9947 26.918L69.6931 25.2622C68.2547 23.9232 66.3414 22.8945 63.6581 22.8945C58.8014 22.8945 54.7197 26.7474 54.7197 31.4827C54.7197 36.2179 58.8014 40.0708 63.6581 40.0708C66.2831 40.0708 68.2547 39.2323 69.8047 37.6593C71.3931 36.1107 71.8881 33.9332 71.8881 32.1749C71.8881 31.6289 71.8414 31.1268 71.7581 30.7075H63.6581ZM124.068 32.5292C123.6 31.2925 122.155 29.0127 119.211 29.0127C116.295 29.0127 113.866 31.2535 113.866 34.5425C113.866 37.6398 116.27 40.0708 119.491 40.0708C122.096 40.0708 123.6 38.5222 124.218 37.6203L122.285 36.3642C121.64 37.2839 120.761 37.8933 119.491 37.8933C118.23 37.8933 117.325 37.3294 116.745 36.2179L124.33 33.158L124.068 32.5292ZM116.335 34.3703C116.27 32.2383 118.033 31.1463 119.296 31.1463C120.286 31.1463 121.126 31.6289 121.406 32.3195L116.335 34.3703ZM110.17 39.7344H112.663V23.4844H110.17V39.7344ZM106.086 30.2444H106.003C105.443 29.5977 104.375 29.0127 103.021 29.0127C100.181 29.0127 97.5847 31.4437 97.5847 34.5604C97.5847 37.6593 100.181 40.0708 103.021 40.0708C104.375 40.0708 105.443 39.4809 106.003 38.8147H106.086V39.6077C106.086 41.7218 104.928 42.8577 103.06 42.8577C101.536 42.8577 100.591 41.7852 100.201 40.8833L98.033 41.7657C98.658 43.2314 100.313 45.0352 103.06 45.0352C105.983 45.0352 108.45 43.3582 108.45 39.2778V29.349H106.086V30.2444ZM103.235 37.8933C101.516 37.8933 100.078 36.4909 100.078 34.5604C100.078 32.612 101.516 31.1902 103.235 31.1902C104.928 31.1902 106.263 32.612 106.263 34.5604C106.263 36.4909 104.928 37.8933 103.235 37.8933ZM135.741 23.4844H129.778V39.7344H132.265V33.5773H135.741C138.503 33.5773 141.211 31.6289 141.211 28.53C141.211 25.4328 138.496 23.4844 135.741 23.4844ZM135.806 31.3169H132.265V25.7448H135.806C137.663 25.7448 138.723 27.2479 138.723 28.53C138.723 29.7878 137.663 31.3169 135.806 31.3169ZM151.178 28.9818C149.381 28.9818 147.513 29.7553 146.745 31.4697L148.951 32.3715C149.426 31.4697 150.3 31.1772 151.223 31.1772C152.513 31.1772 153.821 31.9328 153.841 33.2669V33.4375C153.391 33.184 152.428 32.8087 151.243 32.8087C148.866 32.8087 146.445 34.0843 146.445 36.4649C146.445 38.6424 148.391 40.0448 150.58 40.0448C152.253 40.0448 153.176 39.3087 153.756 38.4523H153.841V39.7084H156.243V33.4749C156.243 30.5938 154.036 28.9818 151.178 28.9818ZM150.878 37.8868C150.065 37.8868 148.931 37.4935 148.931 36.5104C148.931 35.2527 150.345 34.77 151.568 34.77C152.663 34.77 153.176 35.0057 153.841 35.316C153.646 36.8208 152.318 37.8868 150.878 37.8868ZM164.993 29.3377L162.135 36.382H162.05L159.095 29.3377H156.413L160.853 39.1819L158.32 44.6598H160.918L167.76 29.3377H164.993ZM142.578 39.7344H145.071V23.4844H142.578V39.7344Z" fill="white"/>
<defs>
<linearGradient id="paint0_linear_315_12510" x1="29.0662" y1="41.4118" x2="7.25605" y2="19.0425" gradientUnits="userSpaceOnUse">
<stop stop-color="#00A0FF"/>
<stop offset="0.0066" stop-color="#00A1FF"/>
<stop offset="0.2601" stop-color="#00BEFF"/>
<stop offset="0.5122" stop-color="#00D2FF"/>
<stop offset="0.7604" stop-color="#00DFFF"/>
<stop offset="1" stop-color="#00E3FF"/>
</linearGradient>
<linearGradient id="paint1_linear_315_12510" x1="45.1124" y1="26.7333" x2="12.8499" y2="26.7333" gradientUnits="userSpaceOnUse">
<stop stop-color="#FFE000"/>
<stop offset="0.4087" stop-color="#FFBD00"/>
<stop offset="0.7754" stop-color="#FFA500"/>
<stop offset="1" stop-color="#FF9C00"/>
</linearGradient>
<linearGradient id="paint2_linear_315_12510" x1="33.1024" y1="23.7498" x2="3.52611" y2="-6.58489" gradientUnits="userSpaceOnUse">
<stop stop-color="#FF3A44"/>
<stop offset="1" stop-color="#C31162"/>
</linearGradient>
<linearGradient id="paint3_linear_315_12510" x1="9.72949" y1="52.5053" x2="22.9366" y2="38.9596" gradientUnits="userSpaceOnUse">
<stop stop-color="#32A071"/>
<stop offset="0.0685" stop-color="#2DA771"/>
<stop offset="0.4762" stop-color="#15CF74"/>
<stop offset="0.8009" stop-color="#06E775"/>
<stop offset="1" stop-color="#00F076"/>
</linearGradient>
</defs>
</svg>
