<svg width="48" height="49" viewBox="0 0 48 49" fill="none" xmlns="http://www.w3.org/2000/svg">
<circle cx="24" cy="24.7344" r="20" fill="#00227F"/>
<path d="M24 14.8965C27.2041 14.8965 27.5837 14.9088 28.849 14.9665C30.019 15.0198 30.6544 15.2153 31.0773 15.3797C31.6374 15.5974 32.0371 15.8574 32.457 16.2773C32.877 16.6972 33.137 17.097 33.3547 17.6571C33.519 18.0799 33.7145 18.7153 33.7679 19.8853C33.8256 21.1507 33.8378 21.5302 33.8378 24.7343C33.8378 27.9385 33.8256 28.318 33.7679 29.5833C33.7145 30.7533 33.519 31.3887 33.3547 31.8116C33.137 32.3717 32.877 32.7714 32.4571 33.1913C32.0371 33.6113 31.6374 33.8713 31.0773 34.089C30.6544 34.2533 30.019 34.4488 28.849 34.5022C27.5839 34.5599 27.2044 34.5721 24 34.5721C20.7956 34.5721 20.4162 34.5599 19.151 34.5022C17.981 34.4488 17.3456 34.2533 16.9227 34.089C16.3626 33.8713 15.9629 33.6113 15.543 33.1913C15.1231 32.7714 14.863 32.3717 14.6453 31.8116C14.481 31.3887 14.2855 30.7533 14.2321 29.5833C14.1744 28.318 14.1622 27.9385 14.1622 24.7343C14.1622 21.5302 14.1744 21.1507 14.2321 19.8853C14.2855 18.7153 14.481 18.0799 14.6453 17.6571C14.863 17.097 15.123 16.6972 15.543 16.2773C15.9629 15.8574 16.3626 15.5974 16.9227 15.3797C17.3456 15.2153 17.981 15.0198 19.151 14.9665C20.4163 14.9088 20.7959 14.8965 24 14.8965ZM24 12.7344C20.741 12.7344 20.3323 12.7482 19.0524 12.8066C17.7752 12.8648 16.9028 13.0677 16.1395 13.3643C15.3504 13.671 14.6812 14.0813 14.0141 14.7484C13.3469 15.4156 12.9366 16.0848 12.63 16.8739C12.3333 17.6372 12.1305 18.5095 12.0722 19.7868C12.0138 21.0667 12 21.4753 12 24.7343C12 27.9933 12.0138 28.402 12.0722 29.6819C12.1305 30.9592 12.3333 31.8315 12.63 32.5948C12.9366 33.3839 13.3469 34.0531 14.0141 34.7202C14.6812 35.3873 15.3504 35.7977 16.1395 36.1043C16.9028 36.4009 17.7752 36.6038 19.0524 36.6621C20.3323 36.7205 20.741 36.7343 24 36.7343C27.259 36.7343 27.6677 36.7205 28.9476 36.6621C30.2248 36.6038 31.0972 36.4009 31.8605 36.1043C32.6496 35.7977 33.3188 35.3873 33.9859 34.7202C34.653 34.0531 35.0634 33.3839 35.37 32.5948C35.6667 31.8315 35.8695 30.9592 35.9278 29.6819C35.9862 28.402 36 27.9933 36 24.7343C36 21.4753 35.9862 21.0667 35.9278 19.7868C35.8695 18.5095 35.6667 17.6372 35.37 16.8739C35.0634 16.0848 34.653 15.4156 33.9859 14.7484C33.3188 14.0813 32.6496 13.671 31.8605 13.3643C31.0972 13.0677 30.2248 12.8648 28.9476 12.8066C27.6677 12.7482 27.259 12.7344 24 12.7344Z" fill="white"/>
<path d="M24.0059 18.5781C20.6026 18.5781 17.8438 21.337 17.8438 24.7402C17.8438 28.1435 20.6026 30.9024 24.0059 30.9024C27.4092 30.9024 30.1681 28.1435 30.1681 24.7402C30.1681 21.337 27.4092 18.5781 24.0059 18.5781ZM24.0059 28.7403C21.7968 28.7403 20.0059 26.9494 20.0059 24.7402C20.0059 22.5311 21.7968 20.7403 24.0059 20.7403C26.2151 20.7403 28.0059 22.5311 28.0059 24.7402C28.0059 26.9494 26.2151 28.7403 24.0059 28.7403Z" fill="white"/>
<path d="M31.8507 18.3306C31.8507 19.1259 31.206 19.7706 30.4107 19.7706C29.6154 19.7706 28.9707 19.1259 28.9707 18.3306C28.9707 17.5354 29.6154 16.8906 30.4107 16.8906C31.206 16.8906 31.8507 17.5354 31.8507 18.3306Z" fill="white"/>
</svg>
