<svg width="48" height="49" viewBox="0 0 48 49" fill="none" xmlns="http://www.w3.org/2000/svg">
<circle cx="24" cy="24.7344" r="20" fill="#00227F"/>
<path fill-rule="evenodd" clip-rule="evenodd" d="M36 17.043C35.1177 17.435 34.1681 17.699 33.1722 17.8182C34.1889 17.2086 34.9697 16.2439 35.3368 15.0943C34.3865 15.6591 33.3314 16.0679 32.2107 16.2895C31.3123 15.3327 30.0316 14.7344 28.6165 14.7344C25.8975 14.7344 23.6928 16.939 23.6928 19.658C23.6928 20.0436 23.7368 20.4196 23.8208 20.7804C19.7283 20.5756 16.1005 18.6149 13.6719 15.6359C13.2479 16.3631 13.0055 17.2086 13.0055 18.111C13.0055 19.8188 13.8735 21.3259 15.1958 22.2091C14.3878 22.1835 13.6295 21.9619 12.9647 21.5931V21.6547C12.9647 24.041 14.663 26.0304 16.9141 26.484C16.5013 26.596 16.0661 26.6568 15.6174 26.6568C15.2998 26.6568 14.991 26.6256 14.6902 26.568C15.3166 28.5239 17.1357 29.9478 19.2899 29.9878C17.6052 31.3077 15.4822 32.0956 13.1751 32.0956C12.7767 32.0956 12.3848 32.0724 12 32.026C14.1791 33.4227 16.7669 34.2387 19.5475 34.2387C28.6037 34.2387 33.5562 26.736 33.5562 20.23C33.5562 20.0164 33.5522 19.8036 33.5418 19.5933C34.5049 18.8973 35.34 18.0302 36 17.043Z" fill="white"/>
</svg>
