<svg width="48" height="49" viewBox="0 0 48 49" fill="none" xmlns="http://www.w3.org/2000/svg">
<circle cx="24" cy="24.7344" r="20" fill="#00227F"/>
<path fill-rule="evenodd" clip-rule="evenodd" d="M35.3005 17.1124C35.6996 17.5115 35.9872 18.0082 36.1346 18.5531C36.9835 21.9701 36.7873 27.3668 36.1511 30.9157C36.0037 31.4605 35.7161 31.9572 35.317 32.3563C34.9179 32.7554 34.4212 33.043 33.8764 33.1904C31.8819 33.7344 23.8544 33.7344 23.8544 33.7344C23.8544 33.7344 15.8269 33.7344 13.8324 33.1904C13.2876 33.043 12.7909 32.7554 12.3918 32.3563C11.9927 31.9572 11.7051 31.4605 11.5577 30.9157C10.7038 27.5135 10.9379 22.1135 11.5412 18.5695C11.6886 18.0247 11.9762 17.528 12.3753 17.1289C12.7744 16.7298 13.2711 16.4422 13.8159 16.2948C15.8104 15.7509 23.8379 15.7344 23.8379 15.7344C23.8379 15.7344 31.8654 15.7344 33.8599 16.2783C34.4047 16.4258 34.9014 16.7133 35.3005 17.1124ZM27.9423 24.7344L21.283 28.5915V20.8772L27.9423 24.7344Z" fill="white"/>
</svg>
