<svg width="148" height="148" viewBox="0 0 148 148" fill="none" xmlns="http://www.w3.org/2000/svg">
<g clip-path="url(#clip0_222_37692)">
<path d="M74 25.7998L128 76.9489L74 128.098L20 76.9489L74 25.7998Z" fill="#FD5B00"/>
</g>
<path d="M50.7572 31.7114C51.6655 25.9267 56.3455 22.3119 58.5719 21.2275L77.7152 15.0322C94.0085 15.9712 96.6024 26.0548 95.8628 30.9792C97.625 31.8339 98.7598 32.3359 100.632 33.4869C108.339 38.2252 104.851 50.5872 103.818 52.6805C102.785 54.7737 100.29 56.3729 99.5504 58.3105C98.9584 59.8605 98.7535 64.169 98.725 66.1295C99.828 75.3322 94.879 84.5708 93.3356 86.9986C86.6985 97.6691 81.3244 98.0546 77.3188 97.8014C69.0552 98.1623 61.4904 92.7452 59.8201 90.1448C56.514 84.5543 54.6995 76.3528 54.2056 72.9508L53.8349 65.981C53.7505 64.394 53.1731 62.8734 52.1839 61.6333L50.5607 59.5984C45.74 57.6754 43.9536 50.4178 44.6474 46.07C43.5998 39.2476 48.2841 33.655 50.7572 31.7114Z" fill="white"/>
<path fill-rule="evenodd" clip-rule="evenodd" d="M77.6092 14.1982L77.7623 14.2071C86.0796 14.6864 91.0449 17.514 93.8181 20.9944C96.3699 24.1969 96.9881 27.857 96.7491 30.4901C96.8195 30.524 96.8892 30.5575 96.9582 30.5907C98.3306 31.2503 99.4275 31.7775 101.061 32.7818C105.28 35.3759 106.363 40.0236 106.324 44.0831C106.286 48.1436 105.13 51.8812 104.555 53.0469C104.001 54.1685 103.088 55.1436 102.295 55.9897C102.254 56.0332 102.214 56.0764 102.174 56.1192C101.302 57.0511 100.619 57.8169 100.318 58.606C100.07 59.2547 99.8758 60.6028 99.7455 62.1359C99.6211 63.6008 99.5633 65.1183 99.5479 66.0863C100.105 70.8383 99.1096 75.5596 97.7999 79.3737C96.4849 83.2032 94.8332 86.1762 94.0308 87.4392C90.6665 92.8471 87.5674 95.7395 84.72 97.2288C81.8737 98.7175 79.3689 98.7556 77.3105 98.6282C73.0113 98.8058 68.9273 97.4903 65.7181 95.8163C62.5262 94.1513 60.075 92.0646 59.1293 90.5924L59.1211 90.5796L59.1133 90.5664C55.7253 84.8376 53.8915 76.5095 53.392 73.0696L53.3866 73.0322L53.0139 66.0247C52.9387 64.6101 52.424 63.2549 51.5423 62.1496L50.051 60.2799C47.454 59.1535 45.7441 56.673 44.7656 54.0313C43.7766 51.3615 43.4752 48.3777 43.8158 46.0677C43.2993 42.4818 44.2666 39.2412 45.6597 36.6662C46.9785 34.2287 48.7009 32.3446 49.999 31.2641C51.0818 25.299 55.8937 21.6134 58.2133 20.4837L58.2651 20.4585L77.6092 14.1982ZM77.8205 15.8656L58.8802 21.9952C56.7682 23.0442 52.4131 26.4655 51.5693 31.8398L51.5189 32.1612L51.2637 32.3617C50.1108 33.2678 48.3969 35.0662 47.1044 37.4553C45.8155 39.8375 44.9707 42.7579 45.4599 45.9436L45.4796 46.0721L45.4592 46.2004C45.1367 48.221 45.3891 50.9781 46.3066 53.4549C47.2273 55.9404 48.7563 57.9894 50.864 58.8302L51.0662 58.9108L52.8254 61.1162C53.9221 62.4912 54.5623 64.177 54.6559 65.9365L55.0245 72.8682C55.5203 76.2514 57.3113 84.2767 60.5188 89.7087C61.2511 90.8384 63.4129 92.7523 66.4757 94.35C69.5215 95.9387 73.3348 97.1481 77.2831 96.9757L77.3267 96.9738L77.3704 96.9765C79.3094 97.0991 81.4793 97.0611 83.9607 95.7632C86.4605 94.4557 89.3663 91.8209 92.6384 86.5603L92.6405 86.5569L92.6427 86.5534C93.3845 85.3866 94.9771 82.5284 96.2455 78.8348C97.5153 75.1369 98.4399 70.6597 97.9087 66.2279L97.9021 66.1726L97.9029 66.117C97.9174 65.1215 97.9764 63.5344 98.1072 61.9954C98.2345 60.4966 98.4385 58.9155 98.7828 58.014C99.2214 56.8657 100.156 55.8631 100.975 54.9877L101.027 54.9329C101.877 54.0234 102.639 53.2092 103.081 52.3131C103.539 51.3856 104.644 47.8956 104.68 44.0672C104.717 40.2378 103.69 36.3354 100.203 34.1911C98.6452 33.2335 97.6222 32.7416 96.2561 32.0848C96.0179 31.9703 95.7692 31.8507 95.5054 31.7228L94.9593 31.4579L95.0498 30.8555C95.3905 28.5872 94.9639 25.0759 92.5345 22.0271C90.1378 19.0192 85.7012 16.3505 77.8205 15.8656Z" fill="black"/>
<path fill-rule="evenodd" clip-rule="evenodd" d="M68.1862 56.2718C67.0066 55.9397 65.6804 55.7499 64.4399 55.9267C61.8894 56.2902 59.4362 58.0419 58.544 58.8724C58.2109 59.1824 57.6907 59.1624 57.3821 58.8277C57.0735 58.493 57.0934 57.9704 57.4265 57.6603C58.4407 56.7164 61.192 54.7208 64.209 54.2909C65.7524 54.0709 67.3213 54.3125 68.6298 54.6809C69.9404 55.0498 71.046 55.562 71.6854 55.9379C72.0773 56.1684 72.209 56.6744 71.9797 57.0681C71.7504 57.4619 71.2468 57.5943 70.8549 57.3639C70.3389 57.0605 69.3636 56.6032 68.1862 56.2718Z" fill="black"/>
<path fill-rule="evenodd" clip-rule="evenodd" d="M85.6612 53.2273C89.5749 52.6474 92.3828 54.5355 93.3582 55.6498C93.6581 55.9923 93.6248 56.5143 93.2839 56.8156C92.943 57.117 92.4235 57.0836 92.1236 56.741C91.4552 55.9774 89.1777 54.3763 85.901 54.8618C83.6008 55.2027 81.7806 55.507 80.4991 56.397C79.3294 57.2094 78.4879 58.6141 78.4755 61.5372L78.8871 64.0168C78.9618 64.4669 78.6593 64.8925 78.2114 64.9676C77.7636 65.0427 77.3399 64.7387 77.2652 64.2887L76.8311 61.6733L76.8311 61.6049C76.8306 58.2887 77.8021 56.2616 79.5641 55.0379C81.2232 53.8856 83.4674 53.5524 85.6612 53.2273Z" fill="black"/>
<path d="M53.5222 63.311C54.2028 61.4989 55.0628 58.6487 54.8761 56.8636C54.719 55.3618 55.3363 53.0817 55.8861 51.0509C56.3177 49.457 56.7076 48.0167 56.6489 47.227C56.6369 47.0666 56.6205 46.8911 56.603 46.7032C56.4239 44.7871 56.1237 41.5767 59.2089 39.8553C62.5967 37.9651 67.8918 36.1685 70.6263 37.2806C73.3608 38.3926 81.4037 36.7967 83.4577 35.7913C85.5117 34.7858 90.0066 33.6192 92.1142 34.919C94.2218 36.2188 95.4498 43.1209 94.4632 46.0964C93.7707 48.1846 95.2004 51.342 96.2438 53.6462C96.6871 54.6252 97.0607 55.4501 97.1721 55.9736C97.4078 57.0808 97.9907 58.9801 98.4059 60.3331C98.6491 61.1255 98.8348 61.7305 98.8594 61.879C98.862 61.8945 98.8897 61.9014 98.9407 61.9003C99.0698 60.4441 99.2652 59.0572 99.5504 58.3105C99.934 57.3061 100.789 56.3926 101.668 55.4541C102.484 54.5822 103.321 53.6886 103.818 52.6805C104.851 50.5872 108.339 38.2252 100.632 33.4869C99.0364 32.506 97.9764 31.9964 96.6072 31.3382C96.3698 31.2241 96.1231 31.1055 95.8628 30.9792C96.6024 26.0548 94.0084 15.9712 77.7152 15.0322L58.5719 21.2275C56.3455 22.3119 51.6655 25.9267 50.7572 31.7114C48.2841 33.655 43.5998 39.2476 44.6474 46.07C43.9536 50.4178 45.74 57.6754 50.5607 59.5984L53.5222 63.311Z" fill="black"/>
<path fill-rule="evenodd" clip-rule="evenodd" d="M77.6092 14.1982L77.7623 14.2071C86.0796 14.6864 91.0449 17.514 93.8181 20.9944C96.3699 24.1969 96.9881 27.857 96.749 30.4902C96.8208 30.5247 96.8917 30.5588 96.9619 30.5925L96.9665 30.5947C98.3383 31.2542 99.4294 31.7787 101.061 32.7818C105.28 35.3759 106.363 40.0236 106.324 44.0831C106.286 48.1436 105.13 51.8812 104.555 53.0469C104.003 54.1657 103.095 55.1347 102.308 55.9755L102.267 56.0197C101.354 56.9942 100.632 57.7844 100.318 58.606C100.08 59.2287 99.89 60.5021 99.7596 61.9732L99.6943 62.7098L98.9584 62.7258C98.91 62.7268 98.8008 62.7275 98.6773 62.6956C98.6217 62.6812 98.1379 62.553 98.0485 62.0145C98.0503 62.0257 98.0456 61.9995 98.0197 61.9053C97.9974 61.8237 97.9662 61.7159 97.9268 61.5835C97.8482 61.319 97.7423 60.9737 97.6203 60.5761L97.6107 60.5451C97.2011 59.2104 96.6114 57.2891 96.3681 56.146C96.2804 55.7338 95.9599 55.0134 95.4955 53.9879L95.4855 53.9659C94.9697 52.8269 94.3326 51.42 93.9153 50.0282C93.5032 48.6535 93.2529 47.1324 93.6832 45.8348C94.1093 44.5498 94.0798 42.2496 93.6427 40.04C93.4278 38.9537 93.1238 37.9402 92.7606 37.1366C92.3838 36.303 91.9968 35.8155 91.6841 35.6227C90.8975 35.1375 89.5068 35.0562 87.8912 35.3067C86.3244 35.5496 84.7668 36.0689 83.8177 36.5335C82.6705 37.0951 80.0402 37.7591 77.4168 38.1469C76.0879 38.3433 74.7222 38.4747 73.5022 38.4841C72.3075 38.4932 71.1573 38.3873 70.3178 38.0459C69.2118 37.5961 67.4297 37.7023 65.3697 38.2411C63.3549 38.7681 61.2484 39.6619 59.6081 40.5771C57.0428 42.0084 57.2354 44.6341 57.4215 46.6256L57.422 46.6305C57.4392 46.8147 57.4562 46.9967 57.4687 47.165C57.5079 47.6917 57.399 48.3538 57.2543 49.0145C57.1059 49.6923 56.8962 50.4669 56.6832 51.2534L56.6794 51.2674C56.403 52.2883 56.1189 53.3389 55.9219 54.3188C55.7222 55.3117 55.6287 56.1557 55.6937 56.7768C55.8021 57.813 55.6063 59.0833 55.324 60.269C55.037 61.4739 54.6401 62.6737 54.2914 63.6023L53.7823 64.9576L50.051 60.2799C47.454 59.1535 45.7441 56.673 44.7656 54.0313C43.7766 51.3615 43.4752 48.3777 43.8158 46.0677C43.2993 42.4818 44.2666 39.2412 45.6597 36.6662C46.9785 34.2287 48.7009 32.3446 49.999 31.2641C51.0818 25.299 55.8937 21.6134 58.2133 20.4837L58.2651 20.4585L77.6092 14.1982ZM77.8205 15.8656L58.8802 21.9952C56.7682 23.0442 52.4131 26.4655 51.5693 31.8398L51.5189 32.1612L51.2637 32.3617C50.1108 33.2678 48.3969 35.0662 47.1044 37.4553C45.8155 39.8375 44.9707 42.7579 45.4599 45.9436L45.4796 46.0721L45.4592 46.2004C45.1367 48.221 45.3891 50.9781 46.3066 53.4549C47.2273 55.9404 48.7563 57.9894 50.864 58.8302L51.0662 58.9108L53.235 61.6297C53.4135 61.0701 53.584 60.4757 53.7248 59.8845C53.996 58.7457 54.1368 57.6984 54.0584 56.9495C53.9663 56.0688 54.1029 55.0219 54.3101 53.9916C54.5189 52.9531 54.8166 51.8537 55.089 50.8477L55.0928 50.8336C55.3101 50.031 55.5095 49.2936 55.6484 48.6594C55.7919 48.004 55.8486 47.5511 55.829 47.2881C55.8178 47.1371 55.8022 46.9699 55.7844 46.7801C55.7821 46.7554 55.7798 46.7305 55.7774 46.7051C55.6022 44.8381 55.2529 41.1172 58.8098 39.1326C60.5572 38.1577 62.7921 37.2081 64.9555 36.6422C67.0735 36.0882 69.3063 35.8521 70.9347 36.5144C71.4625 36.729 72.3432 36.8407 73.4897 36.8319C74.611 36.8233 75.8972 36.7015 77.1775 36.5123C79.7728 36.1287 82.1908 35.4921 83.0976 35.0482C84.2025 34.5073 85.9193 33.9406 87.6405 33.6738C89.3127 33.4146 91.2233 33.3999 92.5443 34.2145C93.2854 34.6716 93.8423 35.5342 94.2577 36.4534C94.6867 37.4024 95.0232 38.5441 95.2554 39.7178C95.7125 42.0281 95.8037 44.6667 95.2432 46.3571C94.981 47.1478 95.0993 48.2495 95.4898 49.5516C95.8724 50.8277 96.4663 52.1424 96.9922 53.3037L97.0359 53.4002C97.4435 54.3 97.8456 55.1876 97.9761 55.8005C98.115 56.4529 98.3831 57.405 98.6668 58.3598C98.7036 58.236 98.7422 58.1203 98.7828 58.014C99.225 56.8563 100.175 55.8416 101.006 54.955L101.069 54.8877C101.905 53.9947 102.648 53.191 103.081 52.3131C103.539 51.3856 104.644 47.8956 104.68 44.0672C104.717 40.2378 103.69 36.3354 100.203 34.1911C98.6452 33.2335 97.617 32.739 96.2523 32.083L96.2506 32.0821C96.0139 31.9684 95.7666 31.8494 95.5054 31.7228L94.9593 31.4579L95.0498 30.8555C95.3905 28.5872 94.9639 25.0759 92.5345 22.0271C90.1378 19.0192 85.7012 16.3505 77.8205 15.8656Z" fill="black"/>
<path d="M102.891 57.0211C102.029 56.3116 100.333 57.2897 100.1 57.4888L98.7349 60.7942L98.6797 63.56L98.8874 68.4185L99.4216 69.7164C99.7287 69.7539 100.531 69.744 101.282 69.4047C102.22 68.9805 102.646 67.9794 102.749 67.6419C102.852 67.3044 103.083 65.5897 103.26 64.8327C103.803 62.5182 103.426 64.4026 103.787 62.4209C104.149 60.4391 104.226 60.2661 104.166 59.2622C104.105 58.2584 103.752 57.7306 102.891 57.0211Z" fill="white"/>
<path fill-rule="evenodd" clip-rule="evenodd" d="M100.765 58.0361L99.5541 60.9666L99.5024 63.5504L99.7028 68.2373L99.9728 68.8934C100.252 68.8692 100.609 68.8031 100.945 68.6511C101.235 68.5198 101.47 68.2874 101.652 68.0224C101.834 67.7566 101.932 67.5006 101.963 67.3989C101.963 67.4014 101.965 67.3939 101.97 67.3717C101.975 67.3509 101.981 67.3234 101.988 67.2885C102.003 67.2183 102.019 67.129 102.038 67.0223C102.074 66.8193 102.115 66.5714 102.159 66.3028L102.166 66.2601C102.257 65.7069 102.364 65.0556 102.46 64.6431C102.597 64.0621 102.677 63.7387 102.726 63.5499C102.75 63.4548 102.767 63.392 102.781 63.3462C102.787 63.3233 102.792 63.3058 102.796 63.2929L102.798 63.2878C102.8 63.2748 102.806 63.2409 102.819 63.1666C102.843 63.0261 102.888 62.7699 102.979 62.2718C103.036 61.9571 103.086 61.69 103.129 61.4599C103.361 60.2094 103.39 60.0548 103.345 59.312C103.321 58.9056 103.242 58.6579 103.121 58.4514C102.99 58.2288 102.773 57.9923 102.37 57.6598C102.293 57.5967 102.04 57.5303 101.511 57.7007C101.286 57.7733 101.07 57.8713 100.897 57.9627C100.845 57.9901 100.801 58.0148 100.765 58.0361ZM101.009 56.1274C101.602 55.9364 102.628 55.7357 103.412 56.3821C103.87 56.7592 104.26 57.1413 104.537 57.611C104.822 58.0967 104.951 58.6148 104.987 59.2122C105.044 60.1677 104.978 60.5229 104.741 61.7865C104.698 62.0149 104.65 62.273 104.596 62.5696C104.506 63.0624 104.462 63.3138 104.439 63.4496C104.436 63.4636 104.434 63.4772 104.432 63.4903C104.417 63.5802 104.404 63.652 104.383 63.7274C104.381 63.7332 104.379 63.7395 104.377 63.7474C104.357 63.8142 104.301 63.9991 104.061 65.022C103.98 65.3665 103.883 65.9511 103.788 66.5288L103.781 66.576C103.737 66.8402 103.695 67.0978 103.657 67.3115C103.621 67.5176 103.579 67.7421 103.535 67.8846C103.463 68.1204 103.297 68.5337 103.006 68.9589C102.715 69.3849 102.267 69.8651 101.619 70.158C100.701 70.5729 99.7414 70.5874 99.3228 70.5364L98.8457 70.4782L98.0725 68.5993L97.8574 63.5693L97.9163 60.6215L99.4171 56.9886L99.5674 56.8598C99.6959 56.7498 99.9101 56.6175 100.13 56.5009C100.368 56.3751 100.673 56.2356 101.009 56.1274Z" fill="black"/>
<path d="M98.7595 64.8593C98.7414 65.3398 98.7304 65.7734 98.7252 66.1296C99.8282 75.3323 94.8792 84.5709 93.3358 86.9986C86.6987 97.6692 81.3246 98.0547 77.319 97.8015C69.0554 98.1624 61.4906 92.7452 59.8203 90.1449C56.5142 84.5544 54.6997 76.3528 54.2058 72.9509L54.1387 71.6887L54.2054 71.6543C54.9469 72.803 56.8283 75.3103 58.4219 76.1502C60.4139 77.2 62.4686 79.623 62.558 80.4935C62.6295 81.19 63.7012 79.7485 64.2281 78.9407C64.9306 78.085 66.7037 76.2676 68.1757 75.8438C69.3286 75.5119 70.0502 75.187 70.5205 74.9752C70.8008 74.849 70.992 74.763 71.132 74.7395C71.3162 74.7087 72.045 75.0771 72.826 75.472C73.636 75.8816 74.5023 76.3195 74.8752 76.3697C75.6076 76.4684 77.7961 75.3937 78.7607 74.9C79.5814 74.4799 80.0849 74.5537 81.0145 74.69C81.1775 74.7139 81.3536 74.7397 81.5468 74.7651C82.5829 74.9014 85.0095 75.1626 86.0933 75.2761L87.4779 76.317C87.731 76.5145 88.3622 77.0654 88.8625 77.69C89.3628 78.3146 90.268 79.4101 90.6581 79.8797L92.6138 76.0651C92.8936 75.5385 93.6747 74.3597 94.5607 73.857C95.3556 73.406 95.4143 73.3065 95.6318 72.9377C95.7173 72.7927 95.8274 72.6061 96.0164 72.3401C96.5177 71.6348 96.6787 70.9245 96.7505 70.6079C96.7747 70.5015 96.7887 70.4395 96.8022 70.4373C96.8451 70.4301 97.7069 67.5921 98.1325 66.174L98.7308 64.8008L98.7595 64.8593Z" fill="black"/>
<path fill-rule="evenodd" clip-rule="evenodd" d="M98.6869 62.8408L99.5887 64.6817L99.5808 64.8904C99.5639 65.3405 99.5533 65.748 99.5479 66.0867C100.105 70.8387 99.1096 75.5599 97.7999 79.374C96.4848 83.2039 94.833 86.1771 94.0306 87.4399C90.6664 92.8476 87.5673 95.7398 84.72 97.2291C81.8737 98.7178 79.3689 98.756 77.3105 98.6286C73.0114 98.8062 68.9273 97.4907 65.7181 95.8167C62.5262 94.1517 60.075 92.065 59.1293 90.5927L59.1211 90.5799L59.1133 90.5668C55.7253 84.8379 53.8915 76.5099 53.392 73.07L53.3866 73.0326L53.2891 71.1984L54.4905 70.578L54.895 71.2046C55.2468 71.7496 55.8791 72.6315 56.6127 73.474C57.3624 74.335 58.1484 75.0732 58.8036 75.4185C59.9093 76.0012 60.994 76.9397 61.8084 77.8299C62.2188 78.2783 62.5767 78.7321 62.8436 79.1455C62.8798 79.2016 62.9161 79.2595 62.9517 79.3188C63.1622 79.0463 63.3754 78.7405 63.5402 78.4877L63.565 78.4498L63.5937 78.4148C63.9718 77.9542 64.6237 77.2509 65.3789 76.6022C66.1151 75.9698 67.037 75.3121 67.949 75.0495C69.0456 74.7338 69.7259 74.4275 70.1828 74.2218L70.1842 74.2212C70.2028 74.2128 70.222 74.2041 70.2417 74.1952C70.4631 74.0949 70.7469 73.9664 70.9965 73.9245C71.1682 73.8958 71.3171 73.9217 71.3875 73.9359C71.4742 73.9534 71.5575 73.9787 71.6291 74.0032C71.7729 74.0523 71.9338 74.1206 72.0937 74.1933C72.4122 74.338 72.8019 74.535 73.1833 74.7279L73.1953 74.7339C73.6042 74.9407 74.0082 75.1448 74.3554 75.3038C74.5286 75.3832 74.6771 75.4464 74.7973 75.4912C74.857 75.5134 74.9042 75.5291 74.9399 75.5394C74.9661 75.5469 74.9803 75.5499 74.9845 75.5508C74.9848 75.5507 74.9853 75.5507 74.9861 75.5507C75.0033 75.5498 75.1344 75.5431 75.4256 75.4579C75.7073 75.3754 76.0482 75.2478 76.4143 75.0944C77.1444 74.7886 77.9106 74.4078 78.3873 74.1638C78.8868 73.9081 79.3305 73.7846 79.8062 73.7611C80.2318 73.7401 80.6601 73.803 81.0882 73.8658L81.133 73.8724C81.2965 73.8964 81.4669 73.9214 81.6533 73.9459C82.6766 74.0805 85.0916 74.3405 86.1783 74.4543L86.4039 74.478L87.976 75.6598L87.9818 75.6643C88.2696 75.8888 88.9515 76.4837 89.5028 77.172C89.7654 77.4998 90.1421 77.9604 90.4963 78.3909L91.8854 75.6812L91.8883 75.6759C92.0517 75.3683 92.3455 74.898 92.7206 74.4323C93.0886 73.9754 93.5822 73.4632 94.1562 73.1375C94.5581 72.9095 94.6973 72.8111 94.7634 72.7516C94.7993 72.7192 94.8121 72.7066 94.9243 72.5164C95.0136 72.365 95.1377 72.1545 95.3471 71.8599C95.7479 71.2959 95.881 70.7229 95.9487 70.4242L95.951 70.4139C95.9608 70.3708 95.9748 70.3088 95.9892 70.2578C95.9959 70.2342 96.0138 70.1716 96.0456 70.1025C96.052 70.0888 96.062 70.0678 96.0762 70.0423C96.077 70.0399 96.0779 70.0374 96.0788 70.0349C96.1037 69.9641 96.1399 69.8552 96.1861 69.7122C96.2779 69.4283 96.4016 69.0328 96.5384 68.5899C96.8115 67.705 97.1327 66.6433 97.3452 65.9354L97.3594 65.888L98.6869 62.8408ZM98.0584 69.2425C97.9408 69.6224 97.8335 69.9644 97.75 70.2226C97.7028 70.3688 97.6613 70.4939 97.6292 70.5853C97.6138 70.629 97.5967 70.6759 97.5801 70.7167C97.5754 70.7283 97.5673 70.748 97.5564 70.7713C97.555 70.7775 97.5535 70.7841 97.5519 70.7913L97.5502 70.7988C97.4732 71.1383 97.2825 71.9796 96.6853 72.82C96.5166 73.0573 96.4206 73.2201 96.3388 73.3587C96.3344 73.3663 96.3299 73.3739 96.3254 73.3816C96.2227 73.556 96.0978 73.7682 95.8617 73.9812C95.6453 74.1763 95.3577 74.3532 94.9647 74.5762C94.6527 74.7533 94.3128 75.0818 93.9988 75.4717C93.6942 75.8498 93.4588 76.2292 93.3415 76.449L90.8211 81.3652L90.0267 80.4089C89.6368 79.9395 88.7272 78.8389 88.2218 78.2078C87.7761 77.6514 87.2014 77.1481 86.9789 76.9737L85.782 76.0739C84.6177 75.951 82.4211 75.7132 81.4399 75.5841C81.2406 75.5579 81.0595 75.5313 80.8975 75.5076L80.8956 75.5073C80.4089 75.436 80.1357 75.399 79.8869 75.4113C79.6732 75.4219 79.4549 75.4715 79.1337 75.6359C78.6458 75.8857 77.8355 76.2891 77.047 76.6194C76.6539 76.784 76.2501 76.9374 75.8853 77.0442C75.5565 77.1404 75.1354 77.2382 74.7658 77.1884C74.4379 77.1442 74.0172 76.9647 73.6732 76.8071C73.2944 76.6336 72.8638 76.4159 72.4652 76.2143L72.4562 76.2098C72.0604 76.0097 71.7001 75.8277 71.4162 75.6987C71.3141 75.6523 71.2316 75.6172 71.1676 75.5924C71.0894 75.6243 70.9927 75.6677 70.8565 75.729C70.3726 75.9468 69.61 76.29 68.4019 76.6378C67.8419 76.799 67.1413 77.262 66.4474 77.8581C65.7911 78.4218 65.2191 79.036 64.8897 79.4328C64.6171 79.8477 64.2031 80.4297 63.8271 80.8404C63.7279 80.9487 63.6212 81.0564 63.5118 81.15C63.4116 81.2358 63.2667 81.347 63.0916 81.4205C62.932 81.4875 62.5423 81.6025 62.163 81.3407C61.8193 81.1036 61.756 80.7346 61.74 80.5782C61.7402 80.5807 61.7404 80.582 61.7403 80.582C61.7399 80.5821 61.7314 80.5385 61.6877 80.4419C61.6405 80.3377 61.5671 80.2042 61.4642 80.0448C61.2585 79.7262 60.9614 79.3454 60.5979 78.948C59.8647 78.1467 58.9261 77.3487 58.0398 76.8816C57.1014 76.3871 56.1499 75.4516 55.3752 74.5619C55.3485 74.5312 55.3219 74.5006 55.2955 74.4698C56.0283 78.3657 57.7432 85.0084 60.5188 89.709C61.2511 90.8388 63.4129 92.7527 66.4757 94.3503C69.5215 95.9391 73.3348 97.1485 77.2831 96.976L77.3267 96.9741L77.3704 96.9769C79.3095 97.0995 81.4793 97.0615 83.9607 95.7636C86.4605 94.4561 89.3663 91.8213 92.6384 86.5607L92.6405 86.5572L92.6427 86.5538C93.3845 85.3869 94.9772 82.5288 96.2455 78.8351C97.2271 75.9764 98.0025 72.6518 98.0584 69.2425ZM96.8335 70.6268L97.5413 70.7889L96.8335 70.6268Z" fill="black"/>
<path fill-rule="evenodd" clip-rule="evenodd" d="M69.4305 80.8905C69.5193 80.4431 69.9522 80.1526 70.3975 80.2418C70.7863 80.3197 71.153 80.4113 71.5231 80.5038C72.3203 80.7029 73.1331 80.906 74.216 80.9838C75.7412 81.0934 77.7443 80.9306 80.6045 79.9755C81.0354 79.8317 81.5008 80.066 81.644 80.499C81.7872 80.9319 81.5539 81.3995 81.123 81.5434C78.0873 82.5571 75.8677 82.7589 74.0987 82.6318C72.8702 82.5436 71.8224 82.2832 70.9755 82.0727C70.6446 81.9905 70.3444 81.9159 70.0761 81.8622C69.6308 81.773 69.3418 81.338 69.4305 80.8905Z" fill="white"/>
<path d="M47.239 59.4399C49.0658 58.0076 51.3082 59.2271 52.201 60.0159L53.0859 60.9049L53.8643 70.0354C53.5056 70.5401 52.5731 71.3187 51.7121 70.3961C51.3276 69.9841 51.0225 69.2947 50.7916 68.5652C50.304 67.0245 49.5757 65.5486 48.548 64.3046C47.1212 62.5776 45.9412 60.4574 47.239 59.4399Z" fill="white"/>
<path fill-rule="evenodd" clip-rule="evenodd" d="M50.2681 58.0927C51.3213 58.3552 52.2197 58.9321 52.7438 59.3951L52.7636 59.4126L53.8794 60.5334L54.7091 70.2675L54.5332 70.515C54.2972 70.8472 53.854 71.3065 53.2601 71.5259C52.948 71.6412 52.5763 71.6957 52.179 71.6051C51.7795 71.5139 51.4205 71.291 51.1123 70.9607C50.5953 70.4068 50.2458 69.5664 50.008 68.8151C49.5452 67.3528 48.8616 65.9773 47.9153 64.8318C47.1815 63.9436 46.4573 62.8934 46.0976 61.8842C45.9168 61.3766 45.8071 60.8219 45.8805 60.2754C45.9577 59.7015 46.2325 59.1807 46.7331 58.7881C47.8965 57.8759 49.1928 57.8247 50.2681 58.0927ZM49.8722 59.6963C49.1463 59.5154 48.408 59.5706 47.7446 60.0907C47.5964 60.2069 47.532 60.3327 47.51 60.4965C47.4843 60.6877 47.5155 60.9618 47.6457 61.3273C47.9083 62.0643 48.4875 62.9377 49.1805 63.7765C50.2896 65.119 51.0626 66.6953 51.575 68.3144C51.799 69.0221 52.0597 69.5605 52.3117 69.8306C52.434 69.9616 52.5145 69.9873 52.5432 69.9939C52.5741 70.0009 52.6193 70.0023 52.6928 69.9751C52.7989 69.936 52.9139 69.855 53.0155 69.7593L52.2923 61.2754L51.6394 60.6195C51.267 60.2959 50.6077 59.8797 49.8722 59.6963Z" fill="black"/>
<path fill-rule="evenodd" clip-rule="evenodd" d="M82.4191 69.423C82.7062 69.7765 82.6537 70.2969 82.3019 70.5853C81.9238 70.8953 81.7258 71.1487 81.5053 71.4309C81.4179 71.5426 81.3271 71.6588 81.2202 71.7848C81.0384 71.999 80.8157 72.2257 80.5057 72.4135C80.1947 72.602 79.8379 72.7263 79.4109 72.7978C78.7889 72.9021 78.6743 73.0275 78.6107 73.097C78.6094 73.0985 78.6081 73.0999 78.6069 73.1012C78.5555 73.1573 78.5244 73.1985 78.4762 73.2627C78.4382 73.3133 78.3894 73.3782 78.3114 73.4759C78.162 73.6631 77.9704 73.8782 77.688 74.1097C76.9719 74.6968 76.0347 74.7202 75.3901 74.6443C75.0462 74.6038 74.7277 74.5286 74.4703 74.4474C74.2432 74.3757 73.9784 74.2731 73.7967 74.1428C73.6482 74.0362 73.5403 73.8923 73.4957 73.8328L73.4939 73.8304C73.4495 73.7712 73.3982 73.6981 73.3517 73.6318C73.3376 73.6117 73.3239 73.5922 73.311 73.5739C73.1874 73.3988 73.0529 73.2169 72.8884 73.0474C72.5699 72.7191 72.1713 72.4667 71.5925 72.4826C70.6852 72.5074 69.9973 72.2 69.581 71.6429C69.1975 71.1296 69.142 70.5317 69.1965 70.1307C69.2579 69.6787 69.6724 69.3622 70.1223 69.4239C70.5721 69.4856 70.8871 69.9021 70.8257 70.3542C70.8139 70.4406 70.8349 70.5692 70.8959 70.6509C70.9205 70.6837 70.9618 70.7246 71.0454 70.7602C71.1333 70.7978 71.2894 70.8381 71.5477 70.831C72.7266 70.7987 73.5411 71.3533 74.0657 71.894C74.3229 72.159 74.5174 72.427 74.6523 72.6182C74.6741 72.6491 74.6932 72.6763 74.7102 72.7005C74.7406 72.7439 74.7646 72.778 74.7862 72.8078C74.8222 72.8226 74.8799 72.8449 74.9629 72.871C75.1326 72.9246 75.3501 72.976 75.5815 73.0033C76.0874 73.0629 76.4578 72.9859 76.6484 72.8296C76.8193 72.6895 76.9312 72.5643 77.0288 72.442C77.0477 72.4184 77.0734 72.3847 77.1034 72.3454C77.1851 72.2384 77.2991 72.0891 77.3978 71.9815C77.7889 71.5551 78.2829 71.3119 79.1404 71.1681C79.4053 71.1237 79.5567 71.0592 79.6565 70.9987C79.7574 70.9376 79.8482 70.8552 79.9689 70.7129C80.0182 70.6548 80.0748 70.5821 80.1401 70.4983C80.377 70.1942 80.7285 69.7429 81.2624 69.3052C81.6142 69.0168 82.1321 69.0695 82.4191 69.423ZM74.8347 72.8709C74.8347 72.871 74.8334 72.8695 74.8306 72.8662C74.8333 72.8691 74.8346 72.8708 74.8347 72.8709Z" fill="black"/>
<ellipse cx="65.1888" cy="60.2991" rx="2.0228" ry="2.03251" fill="black"/>
<ellipse cx="86.0443" cy="60.2991" rx="2.0228" ry="2.03251" fill="black"/>
<path d="M86.78 56.1406H81.4044C79.4638 56.1406 77.8906 57.6068 77.8906 59.4153V64.4251C77.8906 66.2337 79.4638 67.6998 81.4044 67.6998H86.78C88.7206 67.6998 90.2938 66.2337 90.2938 64.4251V59.4153C90.2938 57.6068 88.7206 56.1406 86.78 56.1406Z" fill="url(#paint0_linear_222_37692)"/>
<path d="M68.8327 56.1406H63.4572C61.5165 56.1406 59.9434 57.6068 59.9434 59.4153V64.4251C59.9434 66.2337 61.5165 67.6998 63.4572 67.6998H68.8327C70.7734 67.6998 72.3465 66.2337 72.3465 64.4251V59.4153C72.3465 57.6068 70.7734 56.1406 68.8327 56.1406Z" fill="url(#paint1_linear_222_37692)"/>
<path d="M68.7659 68.3487H63.3904C62.28 68.3436 61.2167 67.9302 60.4315 67.1985C59.6463 66.4668 59.2028 65.4758 59.1973 64.441V59.4195C59.2039 58.385 59.6478 57.3946 60.4327 56.6631C61.2176 55.9316 62.2803 55.5179 63.3904 55.5117H68.7659C69.8799 55.5169 70.9464 55.9329 71.7322 56.6689C72.5179 57.4048 72.959 58.4008 72.959 59.439V64.4253C72.9612 64.9398 72.8544 65.4496 72.6447 65.9256C72.4349 66.4015 72.1264 66.8341 71.7368 67.1986C71.3472 67.5632 70.8843 67.8524 70.3744 68.0498C69.8646 68.2471 69.318 68.3487 68.7659 68.3487ZM63.3904 56.7896C63.0192 56.789 62.6516 56.8567 62.3085 56.9885C61.9654 57.1204 61.6536 57.314 61.3907 57.5582C61.1279 57.8024 60.9193 58.0925 60.7768 58.4119C60.6342 58.7312 60.5606 59.0736 60.56 59.4195V64.4253C60.5611 65.1215 60.8584 65.7888 61.3866 66.2811C61.9147 66.7733 62.6308 67.0503 63.3778 67.0513H68.7659C69.5129 67.0503 70.229 66.7733 70.7571 66.2811C71.2853 65.7888 71.5826 65.1215 71.5837 64.4253V59.4195C71.5826 58.723 71.2855 58.0552 70.7574 57.5624C70.2293 57.0695 69.5133 56.7916 68.7659 56.7896H63.3904Z" fill="black"/>
<path d="M86.7803 68.3487H81.4089C80.2985 68.3436 79.2352 67.9302 78.45 67.1985C77.6649 66.4668 77.2213 65.4758 77.2158 64.441V59.4195C77.2224 58.385 77.6663 57.3946 78.4512 56.6631C79.2362 55.9316 80.2989 55.5179 81.4089 55.5117H86.7803C87.8939 55.5179 88.9598 55.9343 89.7453 56.67C90.5308 57.4057 90.9723 58.4011 90.9734 59.439V64.4253C90.9723 65.4629 90.5307 66.4578 89.745 67.1929C88.9594 67.928 87.8935 68.3436 86.7803 68.3487ZM81.4089 56.7896C80.6612 56.7906 79.9445 57.0681 79.4162 57.5612C78.8879 58.0543 78.5912 58.7227 78.5912 59.4195V64.4253C78.5923 65.1215 78.8895 65.7888 79.4177 66.2811C79.9459 66.7733 80.6619 67.0503 81.4089 67.0513H86.7803C87.5272 67.0503 88.2433 66.7733 88.7715 66.2811C89.2997 65.7888 89.5969 65.1215 89.598 64.4253V59.4195C89.598 58.7227 89.3013 58.0543 88.773 57.5612C88.2447 57.0681 87.528 56.7906 86.7803 56.7896H81.4089Z" fill="black"/>
<path d="M77.8906 60.4941H72.2803V61.7954H77.8906V60.4941Z" fill="black"/>
<path d="M93.9751 62.5376H90.2936C90.1177 62.5249 89.9535 62.4508 89.8338 62.3302C89.714 62.2096 89.6475 62.0513 89.6475 61.887C89.6475 61.7226 89.714 61.5643 89.8338 61.4437C89.9535 61.3231 90.1177 61.249 90.2936 61.2363H93.9751C94.1509 61.249 94.3151 61.3231 94.4349 61.4437C94.5547 61.5643 94.6212 61.7226 94.6212 61.887C94.6212 62.0513 94.5547 62.2096 94.4349 62.3302C94.3151 62.4508 94.1509 62.5249 93.9751 62.5376Z" fill="black"/>
<path d="M59.877 62.5376H56.6441C56.4683 62.5249 56.3041 62.4508 56.1844 62.3302C56.0646 62.2096 55.998 62.0513 55.998 61.887C55.998 61.7226 56.0646 61.5643 56.1844 61.4437C56.3041 61.3231 56.4683 61.249 56.6441 61.2363H59.877C60.0528 61.249 60.217 61.3231 60.3368 61.4437C60.4566 61.5643 60.5231 61.7226 60.5231 61.887C60.5231 62.0513 60.4566 62.2096 60.3368 62.3302C60.217 62.4508 60.0528 62.5249 59.877 62.5376Z" fill="black"/>
<defs>
<linearGradient id="paint0_linear_222_37692" x1="726.949" y1="473.773" x2="1093.84" y2="473.773" gradientUnits="userSpaceOnUse">
<stop stop-color="white" stop-opacity="0.3"/>
<stop offset="0.5" stop-color="#969696" stop-opacity="0.2"/>
<stop offset="1" stop-color="white" stop-opacity="0.3"/>
</linearGradient>
<linearGradient id="paint1_linear_222_37692" x1="709.002" y1="473.773" x2="1075.89" y2="473.773" gradientUnits="userSpaceOnUse">
<stop stop-color="white" stop-opacity="0.3"/>
<stop offset="0.5" stop-color="#969696" stop-opacity="0.2"/>
<stop offset="1" stop-color="white" stop-opacity="0.3"/>
</linearGradient>
<clipPath id="clip0_222_37692">
<rect width="108" height="108.2" fill="white" transform="translate(20 25.7998)"/>
</clipPath>
</defs>
</svg>
