<svg width="148" height="148" viewBox="0 0 148 148" fill="none" xmlns="http://www.w3.org/2000/svg">
<path d="M119 81.8466C118.999 69.8728 114.257 58.3898 105.817 49.9236C97.3779 41.4574 85.9321 36.7015 73.9977 36.7021C62.0634 36.7027 50.618 41.4598 42.1794 49.9268C33.7407 58.3938 29 69.8773 29 81.8512C29 93.825 33.7407 105.309 42.1794 113.776C50.618 122.243 62.0634 127 73.9977 127C85.9321 127.001 97.3779 122.245 105.817 113.779C114.257 105.313 118.999 93.8295 119 81.8557V81.8466Z" fill="#0044FD"/>
<path d="M48.4588 80.5423C47.6985 78.7087 47.3817 74.4693 47.2803 70.4061C47.1622 65.677 46.9571 60.9445 46.3634 56.2525C46.1705 54.7274 46.0259 53.5043 46.0074 53.1306C45.9493 51.9637 45.3556 49.7938 45.0758 46.6483C44.9682 45.4386 45.2662 43.6414 45.6928 41.855C46.4991 38.4785 48.0194 35.3297 49.9595 32.4664C51.7425 29.8352 52.22 29.6714 54.175 27.5832C56.13 25.4951 59.9477 24.2735 63.1187 22.583C66.2896 20.8925 70.1682 20.7481 77.8058 21.2621C85.4435 21.7761 90.7619 26.9655 95.1699 31.0501C96.1989 32.0036 97.0832 33.0919 97.8313 34.2051C100.683 38.4483 101.197 43.7649 101.28 48.8989C101.288 49.4586 101.29 49.9248 101.28 50.2448C101.218 52.2144 100.456 58.4632 100.414 59.8061C100.404 60.1245 100.408 61.0704 100.42 62.3474C100.485 69.4681 99.939 76.6529 97.5648 83.3545C97.1071 84.6465 96.6342 85.8456 96.1692 86.8236C94.3893 90.5662 89.8885 94.2991 87.8605 95.6978C85.5289 97.7438 79.1293 101.762 72.1841 101.468C63.5025 101.099 57.5959 93.5612 55.2975 91.5159C52.9991 89.4705 50.0406 84.357 48.4588 80.5423Z" fill="white"/>
<path fill-rule="evenodd" clip-rule="evenodd" d="M62.7584 21.8869C66.1514 20.078 70.25 19.9654 77.8576 20.4774C85.4943 20.9914 90.8844 26.0008 95.1636 29.9778C95.342 30.1436 95.5185 30.3076 95.6932 30.4694C96.7748 31.4717 97.6972 32.6088 98.4722 33.7621C101.463 38.2125 101.973 43.7388 102.055 48.8858C102.064 49.4478 102.065 49.9295 102.055 50.2693C102.023 51.29 101.813 53.3808 101.611 55.3416C101.592 55.5234 101.573 55.7039 101.555 55.8823C101.371 57.6703 101.207 59.254 101.189 59.8305C101.18 60.1286 101.183 61.054 101.195 62.3397C101.261 69.498 100.714 76.7904 98.2946 83.6198C97.8323 84.9248 97.3491 86.1523 96.8677 87.1646C95.9198 89.1578 94.2747 91.1023 92.6481 92.7033C91.0325 94.2933 89.3851 95.5928 88.3338 96.3216C85.8956 98.4459 79.3373 102.557 72.1521 102.253C67.5935 102.059 63.7963 99.9848 60.8799 97.747C59.4193 96.6262 58.1684 95.4557 57.1445 94.4445C56.7359 94.041 56.3727 93.6725 56.0486 93.3438C55.5393 92.8272 55.1268 92.4087 54.7868 92.1062C53.5483 91.0041 52.1853 89.1328 50.9505 87.1052C49.7062 85.0621 48.5523 82.7939 47.7448 80.8465C47.3162 79.8128 47.0393 78.1912 46.8522 76.3923C46.6623 74.5666 46.5569 72.4682 46.5059 70.4255C46.388 65.7035 46.1836 61.0033 45.5951 56.352C45.4045 54.8453 45.2543 53.5821 45.2337 53.1698C45.212 52.7326 45.1034 52.124 44.9513 51.271C44.923 51.1124 44.8932 50.9453 44.8622 50.7693C44.6701 49.6795 44.4472 48.3247 44.3043 46.7185C44.1842 45.3673 44.5129 43.4578 44.94 41.6696C45.7728 38.1823 47.3388 34.9465 49.3212 32.0209C50.6572 30.0492 51.3158 29.3861 52.3157 28.3795C52.6847 28.008 53.1002 27.5898 53.6134 27.0416C54.6962 25.8851 56.253 25.0065 57.8555 24.2252C58.505 23.9085 59.154 23.6111 59.7978 23.316C60.8026 22.8554 61.7952 22.4005 62.7584 21.8869ZM77.7549 22.0459C70.0873 21.5299 66.4286 21.7061 63.4798 23.2783C62.4901 23.8059 61.4056 24.3038 60.3596 24.7842C59.7247 25.0757 59.1039 25.3607 58.5271 25.6419C56.9392 26.4161 55.6097 27.1923 54.7375 28.1239C54.1753 28.7244 53.7396 29.163 53.3654 29.5396C52.4042 30.5072 51.8489 31.0661 50.5987 32.9111C48.7008 35.712 47.2264 38.7738 46.4465 42.0396C46.0203 43.8241 45.7532 45.5091 45.8482 46.5772C45.9851 48.1165 46.1989 49.4195 46.3881 50.4927C46.4165 50.6539 46.4448 50.812 46.4725 50.9664C46.6232 51.8086 46.7546 52.5426 46.7818 53.0905C46.7985 53.4255 46.9373 54.6086 47.1326 56.152C47.7314 60.8849 47.9372 65.6497 48.0555 70.3857C48.106 72.4063 48.2098 74.4591 48.3937 76.2274C48.5804 78.0224 48.8421 79.4374 49.1737 80.2372C49.948 82.1045 51.0642 84.3005 52.2693 86.2792C53.4838 88.2733 54.7492 89.9814 55.8092 90.9247C56.1831 91.2574 56.6591 91.7398 57.2042 92.2922C57.5233 92.6156 57.8661 92.963 58.226 93.3184C59.2274 94.3074 60.4267 95.428 61.8152 96.4935C64.5971 98.6281 68.0939 100.507 72.2169 100.682C78.8883 100.965 85.1011 97.0798 87.3538 95.103L87.3879 95.0731L87.4251 95.0474C88.4037 94.3725 90.0009 93.1181 91.5685 91.5752C93.1443 90.0244 94.6396 88.2311 95.4715 86.4817C95.9202 85.5382 96.3828 84.3672 96.8358 83.0883C99.1647 76.5145 99.7104 69.4372 99.6451 62.3544C99.6334 61.0859 99.6294 60.1195 99.6399 59.7808C99.6599 59.1424 99.8291 57.5031 100.009 55.7593C100.029 55.5666 100.049 55.3725 100.069 55.1784C100.274 53.1867 100.476 51.1684 100.505 50.2195C100.515 49.9192 100.514 49.4686 100.505 48.9113C100.423 43.79 99.9034 38.6831 97.1913 34.6473C96.47 33.574 95.6239 32.5346 94.6475 31.6299C94.502 31.495 94.3558 31.3593 94.2088 31.2229C89.8578 27.184 84.8359 22.5225 77.7549 22.0459Z" fill="black"/>
<path fill-rule="evenodd" clip-rule="evenodd" d="M59.43 50.8509C62.4083 50.4073 65.5942 50.7444 67.6281 51.1888C68.0465 51.2802 68.3126 51.6983 68.2225 52.1226C68.1323 52.547 67.72 52.8169 67.3016 52.7254C65.3937 52.3086 62.4013 51.9971 59.6553 52.4062C56.8794 52.8197 54.5994 53.9245 53.6971 56.108C53.5316 56.5083 53.0775 56.6968 52.6827 56.5291C52.2879 56.3613 52.102 55.9007 52.2675 55.5004C53.4911 52.5395 56.4816 51.2901 59.43 50.8509Z" fill="black"/>
<path fill-rule="evenodd" clip-rule="evenodd" d="M87.9551 53.9288C85.2401 53.3444 82.2343 53.4634 80.3042 53.757C79.8809 53.8214 79.4862 53.5256 79.4227 53.0963C79.3592 52.667 79.6509 52.2668 80.0742 52.2025C82.1317 51.8895 85.3322 51.7573 88.2769 52.3911C91.1921 53.0185 94.0986 54.4572 95.1352 57.4907C95.2753 57.9008 95.061 58.3485 94.6566 58.4906C94.2521 58.6328 93.8107 58.4155 93.6705 58.0053C92.9062 55.7683 90.6997 54.5195 87.9551 53.9288Z" fill="black"/>
<path fill-rule="evenodd" clip-rule="evenodd" d="M69.4581 74.4896C68.1371 73.9039 67.2545 74.6321 66.9933 75.0127C66.7488 75.369 66.2657 75.4568 65.9144 75.2089C65.5631 74.9609 65.4765 74.4711 65.721 74.1148C66.269 73.3163 67.8838 72.076 70.0791 73.0493C70.6651 73.3091 71.1578 73.5826 71.5876 73.829C71.6646 73.8732 71.7386 73.9159 71.8103 73.9572C72.1491 74.1526 72.4337 74.3167 72.719 74.4535C73.3527 74.7575 73.9301 74.898 74.8096 74.7048C75.8127 74.4844 76.6149 74.1524 77.3117 73.8598C77.328 73.853 77.3443 73.8461 77.3606 73.8393C77.6844 73.7032 78.0079 73.5674 78.3055 73.4683C78.6165 73.3648 78.9639 73.2783 79.3197 73.2897C80.2991 73.3211 81.8425 73.5673 83.3748 74.4067C83.7514 74.613 83.8918 75.0898 83.6883 75.4718C83.4849 75.8537 83.0147 75.996 82.6381 75.7897C81.3663 75.0931 80.072 74.8866 79.2707 74.8609C79.1813 74.858 79.0351 74.8799 78.7889 74.9619C78.5482 75.0419 78.2735 75.1573 77.9221 75.3049L77.9047 75.3122C77.2017 75.6073 76.2883 75.9884 75.1378 76.2411C73.8635 76.521 72.9372 76.297 72.0563 75.8745C71.7131 75.71 71.3673 75.5104 71.0276 75.3143C70.9597 75.2751 70.8921 75.236 70.8248 75.1974C70.4091 74.9591 69.9709 74.717 69.4581 74.4896Z" fill="black"/>
<path fill-rule="evenodd" clip-rule="evenodd" d="M71.5029 61.2826C71.9307 61.2964 72.2666 61.6592 72.253 62.0931L72.1565 65.1843C72.1488 65.4302 71.9829 67.3661 70.7196 69.621C70.5081 69.9984 70.035 70.1305 69.6628 69.9161C69.2906 69.7017 69.1604 69.2219 69.3718 68.8445C69.9265 67.8545 70.236 66.94 70.4069 66.2607C70.4923 65.9213 70.5427 65.6422 70.5717 65.4437C70.5992 65.2557 70.6062 65.1491 70.6071 65.1359C70.6072 65.1347 70.6072 65.1342 70.6072 65.1345L70.7037 62.0433C70.7173 61.6095 71.0751 61.2689 71.5029 61.2826Z" fill="black"/>
<path d="M46.8801 50.6223C47.9792 46.2511 50.2643 37.163 52.1372 36.0756C54.5848 34.6544 60.6056 31.2858 62.4641 30.9705C62.8354 30.9075 63.2738 30.8205 63.7643 30.7231C65.7287 30.3332 68.5271 29.7778 71.1849 29.9381C72.5977 30.0234 73.5464 29.975 74.361 29.9334C75.4612 29.8772 76.3168 29.8336 77.7409 30.1486C79.5657 30.5523 81.4564 30.4499 82.7322 30.3809C83.1893 30.3561 83.5674 30.3356 83.8353 30.3442C84.7737 30.3744 86.6381 31.0744 88.2134 31.6659C88.3431 31.7146 88.4709 31.7626 88.596 31.8094C89.3824 32.1035 91.1655 33.4699 92.8762 34.8817C94.9099 36.56 96.5179 38.6969 97.7095 41.0655L98.5795 42.795C98.9993 43.6293 99.2863 44.5258 99.4298 45.4511L99.5911 46.4916C99.7841 47.7358 100.282 48.8767 101.006 49.8319C101.073 49.9193 101.206 49.8691 101.204 49.7589C101.099 44.9387 100.664 39.9954 98.2672 35.8314C97.4318 34.3797 96.3981 32.9307 95.1503 31.6949C94.9894 31.5356 94.8274 31.3747 94.6641 31.2126C90.3596 26.9394 85.164 21.7815 77.8061 21.2683C70.1691 20.7357 66.2899 20.8987 63.1151 22.7132C62.1375 23.2719 61.0988 23.7832 60.0719 24.2886C57.7639 25.4247 55.5163 26.531 54.16 28.0792C53.6215 28.6939 53.1949 29.153 52.8222 29.5541C51.8387 30.6124 51.2309 31.2665 49.9337 33.3095C47.9834 36.3812 46.4695 39.729 45.6617 43.2892C45.2231 45.2224 44.9128 47.1749 45.019 48.4833C45.0919 49.3811 45.1873 50.2045 45.2891 50.953C45.4167 51.8911 46.494 52.1536 46.7256 51.2362C46.774 51.0442 46.8256 50.839 46.8801 50.6223Z" fill="black" stroke="black" stroke-width="5" stroke-linecap="round"/>
<path fill-rule="evenodd" clip-rule="evenodd" d="M60.9994 80.1076C60.9798 80.1216 60.9244 80.1704 60.8435 80.3106C60.7084 80.5444 60.5721 80.918 60.4509 81.4431C60.2104 82.4853 60.0716 83.932 60.0106 85.5634C59.8935 88.6983 60.0684 92.364 60.2731 94.7747C60.9981 95.5695 61.9146 96.3823 62.9226 97.0169C64.016 97.7052 65.1706 98.1551 66.2782 98.194C67.3572 98.2319 68.4411 97.8836 69.4566 96.8766C70.4933 95.8485 71.4891 94.1015 72.2711 91.2949L72.4305 90.7226H75.4561L75.5502 91.3988C75.8911 93.8488 76.5743 95.4206 77.3852 96.3953C78.1806 97.3514 79.141 97.7849 80.1734 97.8874C82.2212 98.0908 84.5879 96.9875 86.2589 95.7664C87.125 91.6006 87.2234 88.1387 87.0409 85.6011C86.9476 84.3026 86.7809 83.2497 86.6076 82.4715C86.4555 81.7881 86.3076 81.3594 86.2186 81.1612C86.1821 81.1426 86.1273 81.1182 86.0497 81.09C85.8266 81.0087 85.5023 80.9262 85.0876 80.8487C84.2639 80.6947 83.1844 80.5783 82.0719 80.5061C80.9621 80.4341 79.8415 80.4075 78.9414 80.428C78.4904 80.4383 78.1052 80.4602 77.8093 80.4922C77.6611 80.5082 77.5444 80.5259 77.4578 80.5435C77.3805 80.5592 77.35 80.5705 77.3499 80.5702C77.3499 80.5702 77.3498 80.5703 77.3499 80.5702C76.6924 80.876 75.4732 81.1047 74.2142 81.1315C72.9467 81.1584 71.4577 80.9858 70.3133 80.3366C69.9547 80.1332 69.3756 79.9659 68.6019 79.8557C67.8433 79.7477 66.9608 79.7028 66.0395 79.7048C64.2055 79.7088 62.2815 79.8985 60.9994 80.1076ZM86.2702 81.1914C86.2701 81.1915 86.2681 81.1901 86.2646 81.1873C86.2686 81.19 86.2703 81.1914 86.2702 81.1914ZM68.8174 78.2991C69.6569 78.4186 70.4612 78.6193 71.07 78.9647C71.8605 79.4131 73.0227 79.5845 74.1818 79.5599C75.3464 79.5351 76.326 79.318 76.7058 79.1404C76.9648 79.0193 77.3254 78.9637 77.6448 78.9292C77.9995 78.8908 78.4316 78.8673 78.9066 78.8564C79.8584 78.8347 81.0243 78.863 82.1708 78.9374C83.3146 79.0116 84.4611 79.1331 85.3686 79.3028C85.8195 79.3871 86.237 79.4879 86.5738 79.6106C86.7419 79.6718 86.9118 79.7463 87.0631 79.8398C87.2036 79.9266 87.3945 80.0698 87.5226 80.2965C87.7209 80.6478 87.9338 81.2904 88.1197 82.1252C88.3113 82.9858 88.4884 84.1166 88.5869 85.4868C88.784 88.2284 88.6675 91.943 87.7125 96.3893L87.6515 96.6736L87.4226 96.849C85.6323 98.2213 82.745 99.7223 80.0223 99.4519C78.6218 99.3127 77.2778 98.7038 76.2004 97.4089C75.232 96.2448 74.5164 94.5721 74.1208 92.2946H73.5964C72.7938 94.9419 71.7552 96.7957 70.5404 98.0004C69.2187 99.3111 67.7225 99.8176 66.2246 99.765C64.7553 99.7134 63.3361 99.1274 62.105 98.3524C60.8691 97.5743 59.7757 96.5764 58.9449 95.6295L58.7751 95.4359L58.7521 95.1778C58.5341 92.733 58.3369 88.8413 58.4616 85.5039C58.5238 83.8413 58.667 82.2752 58.9416 81.0849C59.0781 80.4937 59.2576 79.946 59.506 79.5161C59.7481 79.097 60.1358 78.6569 60.7321 78.559C62.089 78.3364 64.1052 78.1371 66.0361 78.1329C67.0021 78.1308 67.9627 78.1773 68.8174 78.2991Z" fill="black"/>
<path d="M64.8464 60.3542C65.1869 60.2809 65.4091 59.9387 65.2836 59.6093C65.0186 58.9133 64.5657 58.3017 63.9712 57.8481C63.2077 57.2656 62.2621 56.9829 61.3091 57.0523C60.356 57.1216 59.46 57.5383 58.7863 58.2254C58.2617 58.7605 57.8995 59.4313 57.7352 60.1586C57.6574 60.5027 57.9255 60.8093 58.2729 60.8326C58.6203 60.8558 58.9135 60.5848 59.0163 60.2474C59.1441 59.828 59.3707 59.4427 59.6803 59.1269C60.1394 58.6588 60.7499 58.3748 61.3993 58.3276C62.0487 58.2803 62.693 58.473 63.2132 58.8699C63.5641 59.1376 63.8426 59.4861 64.0282 59.8828C64.1775 60.2017 64.5058 60.4276 64.8464 60.3542Z" fill="black"/>
<path d="M82.8864 60.9331C82.5511 60.8381 82.3507 60.4822 82.4964 60.1616C82.8043 59.484 83.2945 58.9027 83.9161 58.4881C84.7144 57.9557 85.6758 57.7343 86.6225 57.8646C87.5693 57.9949 88.4376 58.4683 89.0671 59.1972C89.5573 59.7648 89.8769 60.4576 89.9955 61.1939C90.0517 61.5423 89.765 61.8311 89.4169 61.832C89.0687 61.833 88.793 61.5437 88.7115 61.2004C88.61 60.7736 88.4079 60.3746 88.1186 60.0396C87.6897 59.5429 87.0981 59.2204 86.4529 59.1316C85.8078 59.0428 85.1528 59.1937 84.6089 59.5564C84.242 59.8011 83.9423 60.131 83.7323 60.515C83.5635 60.8238 83.2217 61.0281 82.8864 60.9331Z" fill="black"/>
<path d="M104.167 64.1034C104.256 61.2678 106.507 57.6714 104.421 55.9778C102.512 54.4278 101.932 56.1905 101.087 57.2243C100.896 60.8519 99.8097 68.7136 101.364 68.2429C103.308 67.6546 104.086 66.7035 104.167 64.1034Z" fill="white"/>
<path fill-rule="evenodd" clip-rule="evenodd" d="M100.261 58.0067C100.218 58.6047 100.161 59.2754 100.101 59.9856C100.087 60.147 100.074 60.3105 100.06 60.4756C99.9553 61.7147 99.8488 63.0378 99.7974 64.2362C99.7467 65.42 99.7464 66.5408 99.8734 67.353C99.9345 67.7432 100.039 68.1693 100.258 68.4953C100.375 68.6696 100.551 68.8546 100.806 68.9623C101.073 69.0747 101.346 69.0689 101.587 68.996C102.633 68.6793 103.504 68.2248 104.096 67.3839C104.676 66.5595 104.9 65.4844 104.942 64.1281C104.962 63.5087 105.101 62.8208 105.289 62.069C105.351 61.8229 105.42 61.5638 105.49 61.2994C105.624 60.7939 105.763 60.269 105.867 59.7787C106.18 58.315 106.342 56.5304 104.906 55.3642C104.368 54.9275 103.836 54.6505 103.297 54.5917C102.725 54.5296 102.255 54.7228 101.887 55.0058C101.543 55.2703 101.275 55.6232 101.067 55.9167C100.991 56.025 100.923 56.1242 100.859 56.2167C100.729 56.4059 100.618 56.5673 100.491 56.7227C100.428 56.8005 100.369 56.8645 100.315 56.9165C100.009 57.2071 99.9879 57.6896 100.261 58.0067ZM102.173 57.0543C102.073 57.1997 101.962 57.3615 101.848 57.5155C101.802 58.2702 101.726 59.1745 101.645 60.1226C101.632 60.2837 101.618 60.4462 101.604 60.6094C101.5 61.8499 101.396 63.1429 101.346 64.3045C101.296 65.4808 101.304 66.4639 101.404 67.1067C101.422 67.2164 101.44 67.3091 101.46 67.3861C102.16 67.1378 102.568 66.8491 102.834 66.471C103.149 66.0228 103.354 65.3223 103.393 64.0784C103.418 63.2801 103.593 62.4551 103.787 61.6821C103.861 61.3878 103.935 61.1065 104.008 60.833C104.135 60.3558 104.255 59.9026 104.353 59.4458C104.666 57.979 104.587 57.1187 103.937 56.5913C103.52 56.253 103.263 56.1691 103.131 56.1547C103.03 56.1437 102.945 56.1651 102.824 56.2583C102.679 56.37 102.524 56.5547 102.326 56.834C102.28 56.8999 102.228 56.9746 102.173 57.0543Z" fill="black"/>
<path d="M40.9092 59.9309C41.0693 59.506 41.2847 59.0252 41.57 58.4955C42.2291 57.272 43.7066 56.0908 44.9016 56.7799C45.9608 57.3907 46.1817 58.5291 46.3714 59.7497C46.9293 63.3378 47.6706 68.5336 47.6252 69.9881C47.5576 72.155 43.5317 70.9412 43.5655 69.8578L43.5983 68.807C43.6347 67.6426 43.4296 66.4834 42.9965 65.4044L42.8421 65.0198C42.591 64.3943 42.2362 63.817 41.7931 63.3129C40.954 62.3584 40.4592 61.1254 40.9092 59.9309Z" fill="white"/>
<path fill-rule="evenodd" clip-rule="evenodd" d="M42.6393 56.2443C43.3772 55.7998 44.3569 55.561 45.285 56.0962L44.9019 56.7795L45.285 56.0962C46.7114 56.9187 46.9561 58.4615 47.1373 59.6268C47.4168 61.4244 47.7427 63.6278 47.9933 65.5664C48.2398 67.4733 48.4253 69.2074 48.4002 70.0125C48.3877 70.4119 48.281 70.7806 48.0692 71.0935C47.8585 71.4048 47.5737 71.6165 47.2724 71.7521C46.6924 72.0133 46.0123 72.0134 45.4323 71.917C44.8392 71.8184 44.24 71.6009 43.7714 71.3096C43.5376 71.1643 43.3069 70.9825 43.1278 70.7605C42.9514 70.5417 42.7789 70.2239 42.7911 69.8325L42.8239 68.7817C42.8569 67.7272 42.6712 66.6774 42.279 65.7003L42.1246 65.3156C41.9068 64.7732 41.5992 64.2726 41.2148 63.8354C40.2818 62.7741 39.5881 61.2355 40.1855 59.6499L40.9095 59.9304L40.1855 59.6499C40.3587 59.1903 40.589 58.6773 40.8902 58.1182L41.5703 58.495L40.8902 58.1182C41.2771 57.3999 41.9031 56.6877 42.6393 56.2443ZM44.5188 57.4627C44.2519 57.3088 43.8953 57.316 43.4309 57.5958C42.9649 57.8765 42.5226 58.3666 42.2505 58.8718C41.9811 59.3721 41.7805 59.8208 41.6335 60.2109C41.3309 61.0142 41.6267 61.9418 42.3719 62.7894C42.8739 63.3604 43.2758 64.0144 43.5603 64.723L43.7147 65.1076C44.1887 66.2885 44.413 67.5571 44.3733 68.8314L44.3435 69.7836C44.3841 69.8279 44.4595 69.8937 44.5814 69.9694C44.8602 70.1427 45.2653 70.2963 45.683 70.3657C46.1136 70.4373 46.4506 70.4023 46.6434 70.3155C46.7286 70.2771 46.7691 70.2366 46.7913 70.2038C46.8125 70.1725 46.8464 70.1052 46.8509 69.9628C46.8712 69.3134 46.7087 67.7223 46.4564 65.7707C46.2082 63.8508 45.8845 61.6622 45.6061 59.8716C45.4078 58.5958 45.2108 57.8617 44.5188 57.4627ZM44.3144 69.7469C44.3144 69.7469 44.315 69.7478 44.316 69.7496C44.3148 69.7478 44.3143 69.7469 44.3144 69.7469Z" fill="black"/>
<path d="M72.538 92.9733L72.9731 91.7174C73.1242 91.2814 73.5572 91.0084 74.0157 91.06C74.4127 91.1048 74.7436 91.3846 74.8536 91.7688L74.9119 91.9725C75.6039 94.3118 76.2227 97.0374 78.3834 98.1699C78.4785 98.2197 78.5751 98.2641 78.6729 98.3021C79.5942 98.6603 80.9021 98.7971 81.8813 98.8356C82.1515 98.8463 82.2629 99.2168 82.0365 99.3649C82.017 99.3777 81.9959 99.3878 81.9737 99.3951L77.8193 100.764C76.5835 101.07 73.4769 101.618 70.9375 101.359C69.5526 101.217 68.1999 100.753 67.1106 100.256C66.465 99.9611 66.7041 99.0253 67.3899 98.8431C67.8661 98.7167 68.4536 98.3861 68.9798 98.0365C69.7605 97.5176 70.3872 96.8081 70.934 96.0468C71.4327 95.3525 71.8517 94.6044 72.1832 93.8165L72.538 92.9733Z" fill="black"/>
<path d="M100.19 50.7577C100.182 50.7083 100.158 50.6626 100.123 50.6266C100.089 50.5906 100.044 50.566 99.9946 50.5559C96.7316 49.9981 87.7537 49.3691 82.939 50.2711C81.5009 50.564 80.1205 51.0912 78.8527 51.8318L77.8993 52.3185C76.634 52.9775 75.2205 53.2984 73.7953 53.2502C72.3681 53.2995 70.9524 52.9785 69.6853 52.3185L68.7319 51.8318C67.4646 51.0902 66.084 50.5629 64.6456 50.2711C59.8369 49.3869 50.859 49.9981 47.59 50.5559C47.5409 50.5646 47.4959 50.5889 47.4617 50.6253C47.4276 50.6616 47.4061 50.7081 47.4005 50.7577C47.2285 51.998 47.2285 53.2561 47.4005 54.4964C47.4091 54.5417 47.4304 54.5835 47.4618 54.6172C47.4933 54.6508 47.5336 54.6748 47.5781 54.6863C47.5781 54.6863 48.7625 55.0186 49.1889 58.3419C49.5206 60.9708 50.8767 67.202 56.2955 68.193C57.755 68.4417 59.2329 68.5668 60.7133 68.5669C61.3666 68.5748 62.0196 68.5371 62.6676 68.4541C68.6845 67.5759 70.55 62.1696 71.4501 59.5525C71.5686 59.2083 71.6692 58.9175 71.764 58.6861C72.3562 57.2559 72.824 57.1016 73.7953 57.1016C74.5592 57.1016 75.2343 57.2203 75.8265 58.6861C75.9154 58.9175 76.022 59.2143 76.1404 59.5525C77.0347 62.1518 78.906 67.5581 84.917 68.4541C87.0411 68.6544 89.1825 68.5666 91.2832 68.193C96.7079 67.202 98.07 60.9708 98.3898 58.3419C98.8043 55.0186 99.9828 54.6922 99.9887 54.6863C100.035 54.6768 100.078 54.6537 100.112 54.6199C100.146 54.5862 100.169 54.5432 100.178 54.4964C100.354 53.2567 100.358 51.9985 100.19 50.7577ZM96.2223 58.2291C95.9143 60.9293 94.7536 64.5434 92.521 65.8549C91.2832 66.5848 86.3916 67.3266 84.23 66.4958C80.1082 64.9232 77.5913 59.1787 77.5913 56.5675C77.5913 54.7872 81.2393 52.455 84.6979 52.0514C86.1409 51.8862 87.5922 51.803 89.0447 51.8022C91.7807 51.8022 94.4871 52.1226 95.4879 53.0781C96.2045 53.7665 96.5006 55.8376 96.2223 58.2291ZM69.9933 56.5675C69.9933 59.1787 67.4823 64.9232 63.3724 66.4958C61.193 67.3266 56.3014 66.5848 55.0814 65.8549C52.8488 64.5434 51.694 60.9293 51.3801 58.2291C51.1018 55.8554 51.3801 53.7665 52.1263 53.0781C53.1271 52.1226 55.8395 51.8022 58.5695 51.8022C60.022 51.8028 61.4733 51.886 62.9164 52.0514C66.3512 52.455 69.9933 54.7753 69.9933 56.5675Z" fill="black"/>
<path d="M73.2711 90H72.8945C68.0428 89.891 62.497 87.3548 61.0423 81.9264C61.0089 81.8361 60.995 81.74 61.0016 81.6442C61.0081 81.5484 61.0349 81.455 61.0802 81.3699C61.1255 81.2849 61.1883 81.21 61.2646 81.1502C61.341 81.0904 61.4292 81.047 61.5235 81.0226C61.6179 80.9982 61.7165 80.9935 61.8128 81.0087C61.9091 81.024 62.0012 81.0588 62.0831 81.111C62.165 81.1633 62.2349 81.2317 62.2884 81.3121C62.3418 81.3924 62.3777 81.4828 62.3936 81.5775C63.6712 86.3084 68.6041 88.5248 72.9241 88.6193C77.0447 88.6992 82.4428 86.6988 84.156 81.3358C84.2459 81.2091 84.3744 81.1139 84.523 81.064C84.6716 81.0141 84.8324 81.0121 84.9822 81.0582C85.1321 81.1044 85.263 81.1964 85.3561 81.3208C85.4492 81.4452 85.4996 81.5955 85.5 81.75C83.9271 86.6552 79.1493 90 73.2711 90Z" fill="black"/>
</svg>
