<svg width="180" height="53" viewBox="0 0 180 53" fill="none" xmlns="http://www.w3.org/2000/svg">
<path d="M179 46.7377C179 49.5089 176.709 51.7536 173.874 51.7536H6.13243C3.2995 51.7536 1 49.5089 1 46.7377V6.73819C1 3.96836 3.2995 1.71582 6.13243 1.71582H173.873C176.709 1.71582 178.999 3.96836 178.999 6.73819L179 46.7377Z" fill="black"/>
<path d="M173.333 1.776C176.42 1.776 178.932 4.22488 178.932 7.23438V46.2344C178.932 49.2439 176.42 51.6928 173.333 51.6928H6.66667C3.58 51.6928 1.06833 49.2439 1.06833 46.2344V7.23438C1.06833 4.22488 3.58 1.776 6.66667 1.776H173.333ZM173.333 0.734378H6.66667C3.00167 0.734378 0 3.661 0 7.23438V46.2344C0 49.8078 3.00167 52.7344 6.66667 52.7344H173.333C176.998 52.7344 180 49.8078 180 46.2344V7.23438C180 3.661 176.998 0.734378 173.333 0.734378Z" fill="#A6A6A6"/>
<path d="M40.1705 26.4535C40.1318 22.2636 43.6891 20.2252 43.8518 20.1303C41.8371 17.2664 38.7145 16.8751 37.6171 16.8439C34.9945 16.5748 32.4505 18.374 31.1145 18.374C29.7518 18.374 27.6945 16.8699 25.4771 16.9141C22.6238 16.957 19.9545 18.5677 18.4905 21.0689C15.4691 26.1688 17.7225 33.6633 20.6171 37.7856C22.0651 39.8045 23.7571 42.0587 25.9718 41.9794C28.1385 41.8923 28.9478 40.6326 31.5625 40.6326C34.1531 40.6326 34.9131 41.9794 37.1718 41.9287C39.4971 41.8923 40.9611 39.9007 42.3585 37.8636C44.0318 35.5496 44.7038 33.2707 44.7305 33.1537C44.6758 33.1355 40.2145 31.4754 40.1705 26.4535Z" fill="white"/>
<path d="M35.9038 14.1321C37.0691 12.7112 37.8665 10.7781 37.6451 8.81641C35.9585 8.88921 33.8491 9.95391 32.6345 11.3436C31.5598 12.5682 30.5998 14.5754 30.8478 16.463C32.7425 16.6008 34.6878 15.5309 35.9038 14.1321Z" fill="white"/>
<path d="M65.3997 13.7457C65.3997 15.2758 64.9291 16.4276 63.989 17.2011C63.1184 17.9148 61.881 18.2723 60.2784 18.2723C59.4837 18.2723 58.8037 18.2385 58.2344 18.1709V9.81059C58.977 9.69359 59.777 9.63379 60.641 9.63379C62.1677 9.63379 63.3184 9.95749 64.0944 10.6049C64.9637 11.3368 65.3997 12.3833 65.3997 13.7457ZM63.9264 13.7834C63.9264 12.7915 63.657 12.031 63.1184 11.5006C62.5797 10.9715 61.793 10.7063 60.757 10.7063C60.317 10.7063 59.9424 10.7349 59.6317 10.7947V17.1504C59.8037 17.1764 60.1184 17.1881 60.5757 17.1881C61.645 17.1881 62.4704 16.8982 63.0517 16.3184C63.6331 15.7386 63.9264 14.8936 63.9264 13.7834Z" fill="white"/>
<path d="M73.2117 15.0825C73.2117 16.025 72.9357 16.7972 72.3837 17.403C71.805 18.0257 71.0383 18.3364 70.081 18.3364C69.1583 18.3364 68.4237 18.0387 67.8757 17.4407C67.329 16.844 67.0557 16.0913 67.0557 15.1839C67.0557 14.2349 67.337 13.4562 67.9023 12.8517C68.4677 12.2472 69.2277 11.9443 70.185 11.9443C71.1077 11.9443 71.849 12.242 72.4103 12.8387C72.9437 13.4185 73.2117 14.1673 73.2117 15.0825ZM71.7623 15.1267C71.7623 14.5612 71.637 14.0763 71.3877 13.672C71.0943 13.1832 70.677 12.9388 70.1343 12.9388C69.573 12.9388 69.1463 13.1832 68.853 13.672C68.6023 14.0763 68.4783 14.569 68.4783 15.1514C68.4783 15.7169 68.6037 16.2018 68.853 16.6061C69.1557 17.0949 69.577 17.3393 70.121 17.3393C70.6543 17.3393 71.073 17.091 71.3743 16.5931C71.633 16.181 71.7623 15.6922 71.7623 15.1267Z" fill="white"/>
<path d="M83.6867 12.0684L81.7201 18.1966H80.4401L79.6254 15.5355C79.4187 14.8712 79.2507 14.2108 79.1201 13.5556H79.0947C78.9734 14.229 78.8054 14.8881 78.5894 15.5355L77.7241 18.1966H76.4294L74.5801 12.0684H76.0161L76.7267 14.9817C76.8987 15.6707 77.0401 16.3272 77.1534 16.9486H77.1787C77.2827 16.4364 77.4547 15.7838 77.6974 14.9947L78.5894 12.0697H79.7281L80.5827 14.9323C80.7894 15.6304 80.9574 16.3025 81.0867 16.9499H81.1254C81.2201 16.3194 81.3627 15.6473 81.5521 14.9323L82.3147 12.0697H83.6867V12.0684Z" fill="white"/>
<path d="M90.9302 18.1973H89.5329V14.6873C89.5329 13.6057 89.1116 13.0649 88.2662 13.0649C87.8516 13.0649 87.5169 13.2131 87.2569 13.5108C86.9996 13.8085 86.8689 14.1595 86.8689 14.5612V18.196H85.4716V13.8202C85.4716 13.282 85.4542 12.6983 85.4209 12.0665H86.6489L86.7142 13.0246H86.7529C86.9156 12.7269 87.1582 12.4812 87.4769 12.2849C87.8556 12.0561 88.2796 11.9404 88.7436 11.9404C89.3302 11.9404 89.8182 12.125 90.2062 12.4955C90.6889 12.9492 90.9302 13.6265 90.9302 14.5261V18.1973Z" fill="white"/>
<path d="M94.7837 18.1969H93.3877V9.25684H94.7837V18.1969Z" fill="white"/>
<path d="M103.01 15.0825C103.01 16.025 102.734 16.7972 102.182 17.403C101.604 18.0257 100.836 18.3364 99.8798 18.3364C98.9558 18.3364 98.2212 18.0387 97.6745 17.4407C97.1278 16.844 96.8545 16.0913 96.8545 15.1839C96.8545 14.2349 97.1358 13.4562 97.7012 12.8517C98.2665 12.2472 99.0265 11.9443 99.9825 11.9443C100.906 11.9443 101.646 12.242 102.209 12.8387C102.742 13.4185 103.01 14.1673 103.01 15.0825ZM101.56 15.1267C101.56 14.5612 101.434 14.0763 101.185 13.672C100.893 13.1832 100.474 12.9388 99.9332 12.9388C99.3705 12.9388 98.9438 13.1832 98.6518 13.672C98.4012 14.0763 98.2772 14.569 98.2772 15.1514C98.2772 15.7169 98.4025 16.2018 98.6518 16.6061C98.9545 17.0949 99.3758 17.3393 99.9198 17.3393C100.453 17.3393 100.87 17.091 101.172 16.5931C101.432 16.181 101.56 15.6922 101.56 15.1267Z" fill="white"/>
<path d="M109.773 18.1973H108.519L108.415 17.4914H108.376C107.947 18.0543 107.335 18.3364 106.54 18.3364C105.947 18.3364 105.467 18.1505 105.105 17.7813C104.777 17.4459 104.613 17.0286 104.613 16.5333C104.613 15.7845 104.933 15.2138 105.577 14.8186C106.22 14.4234 107.124 14.2297 108.288 14.2388V14.1244C108.288 13.3171 107.853 12.9141 106.983 12.9141C106.363 12.9141 105.816 13.0662 105.344 13.3678L105.06 12.4734C105.644 12.1211 106.365 11.9443 107.216 11.9443C108.859 11.9443 109.683 12.7893 109.683 14.4793V16.7361C109.683 17.3484 109.713 17.8359 109.773 18.1973ZM108.323 16.0913V15.1462C106.781 15.1202 106.011 15.5323 106.011 16.3812C106.011 16.701 106.099 16.9402 106.279 17.1001C106.459 17.26 106.688 17.3393 106.961 17.3393C107.268 17.3393 107.555 17.2444 107.816 17.0559C108.079 16.8661 108.24 16.6256 108.3 16.3305C108.315 16.2642 108.323 16.1836 108.323 16.0913Z" fill="white"/>
<path d="M117.713 18.1969H116.473L116.408 17.2128H116.369C115.973 17.9616 115.298 18.336 114.35 18.336C113.593 18.336 112.962 18.0461 112.462 17.4663C111.962 16.8865 111.713 16.1338 111.713 15.2095C111.713 14.2176 111.984 13.4142 112.528 12.8006C113.054 12.2286 113.7 11.9426 114.468 11.9426C115.312 11.9426 115.902 12.2195 116.238 12.7746H116.265V9.25684H117.664V16.5459C117.664 17.1426 117.68 17.6925 117.713 18.1969ZM116.265 15.6125V14.5907C116.265 14.4139 116.252 14.2709 116.226 14.1617C116.148 13.8341 115.978 13.5585 115.721 13.3362C115.461 13.1139 115.148 13.0021 114.786 13.0021C114.265 13.0021 113.857 13.2036 113.557 13.6079C113.26 14.0122 113.109 14.5283 113.109 15.1588C113.109 15.7646 113.252 16.256 113.538 16.6343C113.841 17.0373 114.249 17.2388 114.76 17.2388C115.218 17.2388 115.585 17.0711 115.864 16.7344C116.133 16.4237 116.265 16.0493 116.265 15.6125Z" fill="white"/>
<path d="M129.664 15.0825C129.664 16.025 129.388 16.7972 128.836 17.403C128.257 18.0257 127.492 18.3364 126.533 18.3364C125.612 18.3364 124.877 18.0387 124.328 17.4407C123.781 16.844 123.508 16.0913 123.508 15.1839C123.508 14.2349 123.789 13.4562 124.354 12.8517C124.92 12.2472 125.68 11.9443 126.638 11.9443C127.56 11.9443 128.302 12.242 128.862 12.8387C129.396 13.4185 129.664 14.1673 129.664 15.0825ZM128.216 15.1267C128.216 14.5612 128.09 14.0763 127.841 13.672C127.546 13.1832 127.13 12.9388 126.586 12.9388C126.026 12.9388 125.6 13.1832 125.305 13.672C125.054 14.0763 124.93 14.569 124.93 15.1514C124.93 15.7169 125.056 16.2018 125.305 16.6061C125.608 17.0949 126.029 17.3393 126.573 17.3393C127.106 17.3393 127.526 17.091 127.828 16.5931C128.085 16.181 128.216 15.6922 128.216 15.1267Z" fill="white"/>
<path d="M137.177 18.1973H135.781V14.6873C135.781 13.6057 135.36 13.0649 134.513 13.0649C134.098 13.0649 133.764 13.2131 133.505 13.5108C133.246 13.8085 133.117 14.1595 133.117 14.5612V18.196H131.718V13.8202C131.718 13.282 131.702 12.6983 131.669 12.0665H132.896L132.961 13.0246H133C133.164 12.7269 133.406 12.4812 133.724 12.2849C134.104 12.0561 134.526 11.9404 134.992 11.9404C135.577 11.9404 136.065 12.125 136.453 12.4955C136.937 12.9492 137.177 13.6265 137.177 14.5261V18.1973Z" fill="white"/>
<path d="M146.581 13.0897H145.042V16.0667C145.042 16.8233 145.316 17.2016 145.857 17.2016C146.108 17.2016 146.316 17.1808 146.48 17.1379L146.516 18.1714C146.24 18.2728 145.877 18.3235 145.43 18.3235C144.878 18.3235 144.449 18.1597 144.138 17.8321C143.826 17.5045 143.672 16.9533 143.672 16.1798V13.0897H142.753V12.0692H143.672V10.946L145.041 10.543V12.0679H146.58V13.0897H146.581Z" fill="white"/>
<path d="M153.978 18.1969H152.58V14.7129C152.58 13.6144 152.158 13.0645 151.314 13.0645C150.666 13.0645 150.224 13.383 149.981 14.02C149.94 14.1539 149.916 14.3177 149.916 14.5101V18.1956H148.52V9.25684H149.916V12.9501H149.942C150.382 12.278 151.013 11.9426 151.83 11.9426C152.409 11.9426 152.888 12.1272 153.268 12.4977C153.741 12.9592 153.978 13.6456 153.978 14.553V18.1969Z" fill="white"/>
<path d="M161.609 14.8433C161.609 15.0877 161.591 15.2931 161.557 15.4608H157.367C157.385 16.0666 157.585 16.5281 157.973 16.8479C158.328 17.1339 158.785 17.2769 159.345 17.2769C159.965 17.2769 160.531 17.1807 161.04 16.987L161.259 17.9334C160.663 18.1856 159.961 18.3117 159.149 18.3117C158.176 18.3117 157.409 18.0322 156.855 17.4732C156.297 16.9142 156.021 16.1641 156.021 15.2229C156.021 14.2986 156.279 13.529 156.797 12.9154C157.339 12.2602 158.071 11.9326 158.995 11.9326C159.899 11.9326 160.585 12.2602 161.049 12.9154C161.424 13.4354 161.609 14.0789 161.609 14.8433ZM160.276 14.491C160.287 14.0867 160.195 13.7383 160.005 13.4445C159.763 13.0662 159.393 12.8764 158.893 12.8764C158.437 12.8764 158.065 13.061 157.781 13.4315C157.549 13.7266 157.412 14.0789 157.367 14.491H160.276Z" fill="white"/>
<path d="M71.5269 41.6901H68.4989L66.8402 36.6083H61.0749L59.4949 41.6901H56.5469L62.2589 24.3896H65.7869L71.5269 41.6901ZM66.3402 34.4763L64.8402 29.9588C64.6815 29.4973 64.3842 28.4105 63.9455 26.6997H63.8922C63.7175 27.4355 63.4362 28.5223 63.0495 29.9588L61.5762 34.4763H66.3402Z" fill="white"/>
<path d="M86.2159 35.2991C86.2159 37.4207 85.6279 39.0977 84.4519 40.3288C83.3985 41.4247 82.0905 41.972 80.5292 41.972C78.8439 41.972 77.6332 41.3818 76.8959 40.2014H76.8425V46.7729H73.9999V33.3218C73.9999 31.988 73.9639 30.6191 73.8945 29.2151H76.3945L76.5532 31.1924H76.6065C77.5545 29.7026 78.9932 28.959 80.9239 28.959C82.4332 28.959 83.6932 29.5401 84.7012 30.7036C85.7119 31.8684 86.2159 33.3998 86.2159 35.2991ZM83.3199 35.4005C83.3199 34.1863 83.0399 33.1853 82.4772 32.3975C81.8625 31.5759 81.0372 31.1651 80.0025 31.1651C79.3012 31.1651 78.6639 31.3939 78.0945 31.845C77.5239 32.3 77.1505 32.8941 76.9759 33.6299C76.8879 33.9731 76.8439 34.2539 76.8439 34.4749V36.5549C76.8439 37.4623 77.1292 38.228 77.6999 38.8533C78.2705 39.4786 79.0119 39.7906 79.9239 39.7906C80.9945 39.7906 81.8279 39.3876 82.4239 38.5842C83.0212 37.7795 83.3199 36.7187 83.3199 35.4005Z" fill="white"/>
<path d="M100.932 35.2991C100.932 37.4207 100.344 39.0977 99.167 40.3288C98.115 41.4247 96.807 41.972 95.2456 41.972C93.5603 41.972 92.3496 41.3818 91.6136 40.2014H91.5603V46.7729H88.7176V33.3218C88.7176 31.988 88.6816 30.6191 88.6123 29.2151H91.1123L91.271 31.1924H91.3243C92.271 29.7026 93.7096 28.959 95.6416 28.959C97.1496 28.959 98.4096 29.5401 99.4203 30.7036C100.427 31.8684 100.932 33.3998 100.932 35.2991ZM98.0363 35.4005C98.0363 34.1863 97.755 33.1853 97.1923 32.3975C96.5776 31.5759 95.755 31.1651 94.719 31.1651C94.0163 31.1651 93.3803 31.3939 92.8096 31.845C92.239 32.3 91.867 32.8941 91.6923 33.6299C91.6056 33.9731 91.5603 34.2539 91.5603 34.4749V36.5549C91.5603 37.4623 91.8456 38.228 92.4136 38.8533C92.9843 39.4773 93.7256 39.7906 94.6403 39.7906C95.711 39.7906 96.5443 39.3876 97.1403 38.5842C97.7376 37.7795 98.0363 36.7187 98.0363 35.4005Z" fill="white"/>
<path d="M117.386 36.838C117.386 38.3096 116.862 39.5069 115.81 40.4312C114.654 41.4413 113.045 41.9457 110.977 41.9457C109.067 41.9457 107.537 41.5869 106.378 40.868L107.037 38.5579C108.285 39.2937 109.654 39.6629 111.146 39.6629C112.217 39.6629 113.05 39.4263 113.649 38.9557C114.245 38.4851 114.542 37.8533 114.542 37.0655C114.542 36.3635 114.297 35.772 113.805 35.2923C113.315 34.8126 112.498 34.3667 111.357 33.9546C108.25 32.8249 106.698 31.17 106.698 28.9938C106.698 27.5716 107.242 26.4055 108.331 25.4981C109.417 24.5894 110.865 24.1357 112.675 24.1357C114.29 24.1357 115.631 24.41 116.702 24.9573L115.991 27.2167C114.991 26.6863 113.861 26.4211 112.595 26.4211C111.595 26.4211 110.814 26.6616 110.254 27.14C109.781 27.5677 109.543 28.089 109.543 28.7065C109.543 29.3903 109.814 29.9558 110.358 30.4004C110.831 30.8112 111.691 31.2558 112.939 31.7355C114.466 32.3348 115.587 33.0355 116.309 33.8389C117.027 34.6397 117.386 35.642 117.386 36.838Z" fill="white"/>
<path d="M126.784 31.2947H123.651V37.3514C123.651 38.8919 124.203 39.6615 125.31 39.6615C125.818 39.6615 126.239 39.6186 126.572 39.5328L126.651 41.6375C126.091 41.8416 125.354 41.9443 124.44 41.9443C123.318 41.9443 122.44 41.6102 121.807 40.9433C121.176 40.2751 120.859 39.1545 120.859 37.5802V31.2921H118.992V29.2121H120.859V26.928L123.651 26.1064V29.2121H126.784V31.2947Z" fill="white"/>
<path d="M140.922 35.3495C140.922 37.267 140.359 38.8413 139.236 40.0724C138.059 41.3399 136.496 41.9717 134.548 41.9717C132.671 41.9717 131.176 41.3646 130.062 40.1504C128.947 38.9362 128.39 37.4035 128.39 35.5562C128.39 33.6231 128.963 32.0397 130.114 30.8086C131.262 29.5762 132.811 28.96 134.759 28.96C136.636 28.96 138.147 29.5671 139.287 30.7826C140.378 31.9617 140.922 33.484 140.922 35.3495ZM137.972 35.4392C137.972 34.2887 137.72 33.302 137.21 32.4791C136.614 31.4833 135.762 30.9867 134.658 30.9867C133.515 30.9867 132.647 31.4846 132.051 32.4791C131.54 33.3033 131.288 34.3056 131.288 35.4912C131.288 36.6417 131.54 37.6284 132.051 38.45C132.666 39.4458 133.524 39.9424 134.632 39.9424C135.718 39.9424 136.57 39.4354 137.184 38.424C137.708 37.5855 137.972 36.5884 137.972 35.4392Z" fill="white"/>
<path d="M150.162 31.6526C149.88 31.6019 149.58 31.5759 149.266 31.5759C148.266 31.5759 147.492 31.9438 146.948 32.6809C146.475 33.3309 146.238 34.1525 146.238 35.1444V41.6899H143.396L143.423 33.1437C143.423 31.7059 143.387 30.3968 143.316 29.2164H145.792L145.896 31.6032H145.975C146.275 30.7829 146.748 30.1225 147.396 29.6272C148.03 29.1813 148.714 28.959 149.451 28.959C149.714 28.959 149.951 28.9772 150.162 29.0097V31.6526Z" fill="white"/>
<path d="M162.875 34.8622C162.875 35.3588 162.841 35.7774 162.771 36.1193H154.243C154.276 37.3517 154.688 38.2942 155.48 38.9442C156.199 39.5253 157.128 39.8165 158.269 39.8165C159.532 39.8165 160.684 39.6202 161.72 39.2263L162.165 41.1503C160.955 41.6651 159.525 41.9212 157.876 41.9212C155.892 41.9212 154.335 41.3518 153.201 40.2143C152.071 39.0768 151.504 37.5493 151.504 35.6331C151.504 33.752 152.031 32.1855 153.085 30.9362C154.189 29.6024 155.681 28.9355 157.559 28.9355C159.403 28.9355 160.799 29.6024 161.747 30.9362C162.497 31.9957 162.875 33.3061 162.875 34.8622ZM160.164 34.1433C160.183 33.3217 159.997 32.6119 159.612 32.0126C159.12 31.2417 158.364 30.8569 157.347 30.8569C156.417 30.8569 155.661 31.2326 155.084 31.9866C154.611 32.5859 154.329 33.3048 154.243 34.142H160.164V34.1433Z" fill="white"/>
</svg>
