<svg width="148" height="148" viewBox="0 0 148 148" fill="none" xmlns="http://www.w3.org/2000/svg">
<path d="M127.531 48.877L73.7656 126.538L20 48.877L127.531 48.877Z" fill="#FDB900"/>
<path d="M70.1186 99.435C55.691 96.5112 50.9691 79.2433 50.4418 71.067C49.4333 64.6928 50.5564 64.6794 47.2674 60.4325C46.2449 59.1123 43.5675 56.0387 43.5675 56.0387C40.3251 50.0967 44.8803 43.9461 47.5631 41.6136C48.0377 32.7689 56.0605 28.306 60.0127 27.1802C65.7358 20.7771 74.3189 21.9043 77.895 23.2682C89.8464 23.1678 96.3765 31.14 98.1476 35.1386C105.59 37.6862 105.213 43.4394 105.514 47.2552C105.621 49.5808 103.808 56.3959 102.241 58.9771C100.214 62.3151 97.6291 65.0376 96.9583 66.5492L94.9367 74.2409C92.6756 83.8572 84.5463 102.359 70.1186 99.435Z" fill="white"/>
<path d="M50.3337 63.7027C52.208 59.5409 54.1188 54.94 55.0365 51.728C57.0586 44.6505 60.0156 42.6207 62.5623 41.0581C64.3661 39.9514 67.3972 39.3285 69.2759 38.9424C70.0497 38.7834 70.628 38.6645 70.8447 38.5686C70.8931 38.5472 70.9477 38.5226 71.0083 38.4954C72.4232 37.8592 77.1046 35.7542 82.5464 37.5372C83.5784 37.8754 84.4201 38.1461 85.1132 38.3691C85.5063 38.4956 85.8516 38.6067 86.1568 38.706C89.4389 39.7739 91.3883 42.9934 93.0303 46.075C94.1038 48.0897 94.9283 50.2317 95.4851 52.4523L96.5865 56.8455L97.782 63.7596C97.8426 64.1099 97.9469 64.4492 98.0913 64.7697C98.3754 64.3842 98.6937 63.9677 99.0332 63.5235C100.029 62.2206 101.207 60.6788 102.241 58.9771C103.808 56.3959 105.621 49.5808 105.514 47.2552C105.487 46.9107 105.465 46.5504 105.443 46.1781C105.217 42.4266 104.918 37.4562 98.1476 35.1386C96.3765 31.14 89.8464 23.1678 77.895 23.2682C74.3189 21.9043 65.7358 20.7771 60.0127 27.1802C56.0605 28.306 48.0377 32.7689 47.5631 41.6136C44.8803 43.9461 40.3251 50.0967 43.5675 56.0387C43.5675 56.0387 46.2449 59.1123 47.2674 60.4325C48.8953 62.5346 49.4424 63.5995 49.702 64.9119C49.9334 64.5258 50.1446 64.1225 50.3337 63.7027Z" fill="black"/>
<path fill-rule="evenodd" clip-rule="evenodd" d="M69.8378 23.0848C66.6715 23.418 63.2861 24.6739 60.5787 27.703L60.4308 27.8684L60.2191 27.9288C58.3426 28.4633 55.4583 29.8069 52.9979 32.0779C50.5485 34.3387 48.5506 37.4858 48.3269 41.6555L48.3091 41.988L48.0602 42.2044C46.7894 43.3093 45.0614 45.3362 44.0479 47.775C43.0503 50.1755 42.7665 52.9082 44.197 55.5878L44.258 55.658C44.3335 55.745 44.4424 55.8706 44.5763 56.0254C44.844 56.335 45.2117 56.7617 45.6115 57.2299C46.4068 58.1612 47.3438 59.2735 47.8683 59.9507C48.8193 61.1787 49.4337 62.0912 49.8401 62.9292C51.6465 58.8929 53.434 54.5494 54.3023 51.5104C55.3361 47.892 56.6241 45.5119 58.0171 43.8243C59.4112 42.1354 60.8763 41.1838 62.1674 40.3916C63.1603 39.7824 64.4499 39.3276 65.6875 38.9798C66.9315 38.6302 68.1805 38.3735 69.1164 38.1812L69.1246 38.1795C69.5146 38.0993 69.843 38.0318 70.1011 37.9726C70.2298 37.9431 70.3336 37.9173 70.414 37.8947C70.454 37.8835 70.4848 37.8741 70.5079 37.8664C70.5285 37.8594 70.5381 37.8555 70.5396 37.8549C70.5397 37.8549 70.5396 37.8549 70.5396 37.8549C70.5856 37.8346 70.6381 37.8109 70.6992 37.7835L70.7095 37.7788C72.156 37.1284 77.0618 34.9224 82.7811 36.7964C83.8108 37.1338 84.6506 37.404 85.3436 37.6269L85.344 37.627C85.7367 37.7534 86.0833 37.8649 86.39 37.9647C90.003 39.1403 92.0786 42.6555 93.7028 45.7039C94.8064 47.775 95.6539 49.9769 96.2263 52.2596L97.3349 56.6813L98.4343 63.0395C99.4317 61.7344 100.583 60.2262 101.59 58.5679C102.314 57.3754 103.137 55.1154 103.769 52.8107C104.082 51.6708 104.342 50.544 104.516 49.5656C104.692 48.5804 104.772 47.7943 104.751 47.3033C104.724 46.9557 104.702 46.5941 104.68 46.2297L104.68 46.2252C104.566 44.3288 104.435 42.3009 103.561 40.4582C102.709 38.6637 101.114 36.9741 97.9038 35.8754L97.5876 35.7671L97.4505 35.4577C95.7726 31.6694 89.4802 23.9483 77.9015 24.0456L77.7595 24.0468L77.6266 23.9961C75.9391 23.3525 73.0179 22.7502 69.8378 23.0848ZM43.5677 56.0382L42.9953 56.5541L42.9397 56.4903L42.899 56.4157C41.1315 53.1766 41.508 49.8909 42.6391 47.1693C43.6993 44.6182 45.4415 42.5032 46.8208 41.241C47.1572 36.7305 49.3644 33.3308 51.97 30.9258C54.539 28.5546 57.5242 27.12 59.5953 26.4928C62.5857 23.2376 66.2867 21.8945 69.6804 21.5374C73.0364 21.1843 76.1275 21.7896 78.0293 22.4891C89.9715 22.4499 96.6629 30.239 98.7034 34.511C102.066 35.7355 103.922 37.6395 104.938 39.7822C105.953 41.9216 106.092 44.231 106.203 46.0775L106.206 46.1301C106.229 46.5039 106.25 46.8566 106.277 47.1924L106.278 47.2054L106.278 47.2184C106.309 47.891 106.203 48.824 106.021 49.8432C105.837 50.8774 105.565 52.0517 105.242 53.229C104.603 55.5586 103.735 57.9967 102.891 59.3854C101.836 61.1228 100.637 62.6918 99.646 63.9888L99.6372 64.0004C99.2966 64.446 98.9827 64.8567 98.7035 65.2357L97.9322 66.2825L97.3963 65.0934C97.2247 64.7127 97.1009 64.3098 97.029 63.8939L95.8385 57.0087L94.7442 52.644C94.203 50.4856 93.4015 48.4035 92.358 46.4451C90.6984 43.3304 88.8752 40.4067 85.9239 39.4464C85.6202 39.3476 85.2761 39.2369 84.8827 39.1103L84.8818 39.11C84.1888 38.8871 83.3457 38.6158 82.3121 38.2772C77.1613 36.5895 72.7142 38.5784 71.3177 39.2064L71.3151 39.2075C71.256 39.2341 71.2002 39.2592 71.1502 39.2813C70.9643 39.3636 70.6938 39.4314 70.4377 39.4902C70.1608 39.5537 69.8158 39.6246 69.4349 39.7029L69.4276 39.7044C68.4856 39.898 67.2833 40.1453 66.0949 40.4793C64.8963 40.8162 63.7685 41.2261 62.9575 41.7237C61.7018 42.4941 60.4151 43.3387 59.1886 44.8247C57.9609 46.3119 56.7594 48.4855 55.7711 51.9446C54.8362 55.2166 52.904 59.8631 51.0291 64.0262C50.8275 64.4739 50.6021 64.9043 50.355 65.3164L49.3377 67.0131L48.9524 65.0648C48.7284 63.9327 48.2705 62.9842 46.6667 60.9134C46.1687 60.2703 45.2558 59.1857 44.4568 58.2501C44.0595 57.785 43.694 57.3607 43.4277 57.0528C43.2946 56.8989 43.1864 56.774 43.1115 56.6878L42.9957 56.5546L42.9953 56.5541C42.9952 56.5541 42.9953 56.5541 43.5677 56.0382Z" fill="black"/>
<path fill-rule="evenodd" clip-rule="evenodd" d="M58.3599 56.6258C57.3224 57.0656 56.5899 57.647 56.222 58.2763C56.0062 58.6455 55.5369 58.7669 55.1738 58.5473C54.8108 58.3278 54.6915 57.8504 54.9073 57.4812C55.505 56.4588 56.5651 55.7012 57.7714 55.1898C58.9895 54.6735 60.4293 54.376 61.8935 54.323C64.7815 54.2184 68.0024 55.0667 69.7896 57.4006C70.0491 57.7395 69.9894 58.2283 69.6562 58.4923C69.323 58.7563 68.8424 58.6955 68.5829 58.3566C67.2262 56.5849 64.6019 55.7816 61.9479 55.8777C60.6411 55.925 59.3857 56.1909 58.3599 56.6258Z" fill="black"/>
<path fill-rule="evenodd" clip-rule="evenodd" d="M85.7468 54.474C88.5436 55.0936 90.9495 56.5619 92.1388 57.3609C92.4912 57.5977 92.5882 58.0802 92.3554 58.4387C92.1227 58.7971 91.6482 58.8958 91.2958 58.659C90.1573 57.8941 87.9401 56.5521 85.4213 55.994C82.9261 55.4413 80.2118 55.6678 77.9022 57.9182C77.5972 58.2154 77.1131 58.2048 76.8209 57.8946C76.5287 57.5844 76.5391 57.092 76.8441 56.7948C79.6326 54.0778 82.9265 53.8491 85.7468 54.474Z" fill="black"/>
<path d="M69.6283 66.4472C69.0255 70.7697 65.095 73.7668 60.8589 73.1556C56.6214 72.5442 53.6639 68.5512 54.2669 64.2275C54.8697 59.9049 58.8002 56.9079 63.0363 57.519C67.2738 58.1304 70.2313 62.1234 69.6283 66.4472Z" stroke="black" stroke-width="0.7"/>
<path d="M92.1557 66.4472C91.5528 70.7697 87.6223 73.7668 83.3862 73.1556C79.1488 72.5442 76.1912 68.5512 76.7942 64.2275C77.3971 59.9049 81.3276 56.9079 85.5637 57.519C89.8011 58.1304 92.7587 62.1234 92.1557 66.4472Z" stroke="black" stroke-width="0.7"/>
<path fill-rule="evenodd" clip-rule="evenodd" d="M72.4923 62.8431C71.0058 62.9351 69.8291 63.2644 69.2948 63.5169C68.9117 63.6979 68.4569 63.5288 68.279 63.1391C68.101 62.7495 68.2673 62.287 68.6504 62.106C69.4039 61.7499 70.7797 61.3905 72.3994 61.2903C74.031 61.1893 75.9764 61.3467 77.8558 62.0859C78.2497 62.2409 78.4456 62.6913 78.2932 63.092C78.1409 63.4927 77.6981 63.6919 77.3041 63.5369C75.6812 62.8986 73.9668 62.7518 72.4923 62.8431Z" fill="black"/>
<path d="M63.7855 64.5191C63.6157 65.7366 62.5077 66.5836 61.3107 66.4109C60.1136 66.2381 59.2809 65.1111 59.4507 63.8936C59.6205 62.6761 60.7285 61.8291 61.9256 62.0018C63.1226 62.1746 63.9553 63.3015 63.7855 64.5191Z" fill="black"/>
<path d="M86.3002 64.5191C86.1304 65.7366 85.0223 66.5836 83.8253 66.4109C82.6283 66.2381 81.7955 65.1111 81.9653 63.8936C82.1351 62.6761 83.2432 61.8291 84.4402 62.0018C85.6372 62.1746 86.47 63.3015 86.3002 64.5191Z" fill="black"/>
<path d="M101.276 65.3281C99.6061 64.1848 98.1738 64.8804 97.6664 65.3712L94.2139 77.7027C94.7897 77.7153 95.9509 77.6714 95.9895 77.395C96.0377 77.0495 97.687 76.653 99.8284 73.2258C101.97 69.7986 103.364 66.7572 101.276 65.3281Z" fill="white"/>
<path fill-rule="evenodd" clip-rule="evenodd" d="M98.3364 65.8192L95.239 76.8823C95.3073 76.8737 95.3642 76.8645 95.4102 76.8556C95.4694 76.7744 95.5282 76.7179 95.5617 76.6864C95.6584 76.5956 95.7757 76.5106 95.8687 76.4441C95.9007 76.4212 95.9338 76.3978 95.968 76.3736C96.1537 76.242 96.3729 76.0867 96.6398 75.8646C97.2619 75.3472 98.1554 74.4539 99.1829 72.8093C100.253 71.0963 101.077 69.5689 101.399 68.3296C101.558 67.7173 101.577 67.2368 101.489 66.8681C101.406 66.5237 101.219 66.2272 100.849 65.9741C99.6976 65.1857 98.7554 65.5248 98.3364 65.8192ZM97.1394 64.8082C97.8486 64.1223 99.6739 63.2943 101.703 64.6835C102.378 65.1449 102.799 65.7645 102.975 66.4995C103.145 67.2101 103.074 67.9721 102.878 68.7272C102.489 70.2227 101.545 71.9296 100.474 73.6438C99.36 75.4264 98.3582 76.445 97.6082 77.0689C97.292 77.3319 97.0225 77.5226 96.8361 77.6545C96.8044 77.677 96.775 77.6977 96.7483 77.7169C96.7135 77.7417 96.6853 77.7622 96.6619 77.7797C96.5814 77.9412 96.4655 78.05 96.3818 78.1132C96.2555 78.2087 96.1216 78.2644 96.0238 78.2984C95.8238 78.3678 95.5939 78.4064 95.3926 78.4305C94.978 78.4801 94.5056 78.4879 94.1974 78.4812L93.207 78.4595L96.9881 64.9546L97.1394 64.8082Z" fill="black"/>
<path d="M45.0257 64.9539C46.038 63.7419 48.6047 64.9044 49.7616 65.6372C50.2228 67.7884 51.1016 72.6564 50.9267 74.9183C50.7517 77.1802 48.8206 76.163 47.8769 75.3717C47.3721 74.7926 46.3718 73.189 46.4095 71.4076C46.4565 69.1809 43.7604 66.4689 45.0257 64.9539Z" fill="white"/>
<path fill-rule="evenodd" clip-rule="evenodd" d="M47.5237 63.8111C48.5373 64.0673 49.543 64.5822 50.1657 64.9767L50.4398 65.1503L50.5086 65.4712C50.7424 66.5614 51.0807 68.334 51.3392 70.1229C51.5943 71.8892 51.7839 73.7508 51.6889 74.9791C51.6376 75.643 51.4471 76.2256 51.0322 76.6217C50.5994 77.0348 50.062 77.1145 49.6053 77.0628C48.7552 76.9666 47.8929 76.3932 47.3902 75.9717L47.3441 75.933L47.3045 75.8875C46.7286 75.2269 45.6014 73.4403 45.6447 71.3907C45.6532 70.9861 45.5358 70.5122 45.3224 69.955C45.1734 69.5661 44.9998 69.1885 44.8173 68.7917C44.7341 68.6109 44.6492 68.4261 44.5638 68.2344C44.308 67.6597 44.0496 67.0225 43.9582 66.4035C43.8629 65.7575 43.9397 65.0523 44.4427 64.4501C45.2608 63.4705 46.582 63.5731 47.5237 63.8111ZM47.1548 65.3209C46.2709 65.0975 45.8025 65.2248 45.6084 65.4573C45.4787 65.6126 45.418 65.8144 45.4708 66.1726C45.5277 66.5578 45.7031 67.0218 45.9572 67.5928C46.0257 67.7465 46.1007 67.9097 46.1785 68.079C46.3706 68.497 46.5796 68.9517 46.7476 69.3903C46.9869 70.0152 47.1889 70.7153 47.1739 71.4241C47.1428 72.8941 47.9662 74.2768 48.4108 74.8106C48.8449 75.1643 49.3934 75.4735 49.7745 75.5167C49.9363 75.535 49.9756 75.4968 49.9849 75.4879L49.9855 75.4872C50.0114 75.4626 50.128 75.3241 50.1641 74.8571C50.244 73.8234 50.0817 72.1201 49.8259 70.3491C49.598 68.7716 49.3057 67.2033 49.0837 66.1325C48.5557 65.8289 47.8396 65.494 47.1548 65.3209Z" fill="black"/>
<path fill-rule="evenodd" clip-rule="evenodd" d="M70.4271 91.4818C70.5699 91.0775 71.0079 90.8676 71.4054 91.0128C71.9756 91.2212 72.9587 91.4897 74.0018 91.5977C75.066 91.7078 76.0708 91.6373 76.7695 91.2849C77.1479 91.0941 77.6067 91.2514 77.7944 91.6363C77.982 92.0212 77.8273 92.4879 77.4489 92.6787C76.3614 93.2272 75.0065 93.2654 73.847 93.1454C72.6662 93.0232 71.5613 92.7229 70.8882 92.4769C70.4907 92.3316 70.2843 91.8861 70.4271 91.4818Z" fill="black"/>
<path fill-rule="evenodd" clip-rule="evenodd" d="M65.7953 86.6906C65.9097 86.277 66.3319 86.036 66.7386 86.1523C68.2514 86.5849 70.7935 87.1369 73.4606 87.3741C76.1523 87.6135 78.8547 87.5206 80.7586 86.7544C81.1514 86.5964 81.5957 86.7921 81.7511 87.1916C81.9065 87.591 81.7141 88.043 81.3214 88.2011C79.074 89.1054 76.0753 89.1684 73.3273 88.9239C70.5546 88.6773 67.9182 88.1056 66.3246 87.6499C65.918 87.5337 65.681 87.1041 65.7953 86.6906Z" fill="black"/>
<path fill-rule="evenodd" clip-rule="evenodd" d="M81.1582 77.6321C81.5783 77.6762 81.8837 78.0584 81.8403 78.4858L81.0796 78.4058C81.8403 78.4858 81.8403 78.4861 81.8402 78.4865L81.84 78.4888L81.8396 78.4922L81.8387 78.5005C81.838 78.5066 81.8371 78.5138 81.836 78.5221C81.8338 78.5388 81.8308 78.5599 81.8266 78.585C81.8184 78.6351 81.8056 78.7016 81.7864 78.7806C81.7481 78.9377 81.6825 79.1501 81.5711 79.3835C81.3468 79.8537 80.9274 80.425 80.1724 80.7721C79.7364 80.9725 79.3277 81.0572 78.9302 81.014C78.5355 80.971 78.2323 80.8097 78.0082 80.6674C77.8831 80.5879 77.7843 80.5207 77.7016 80.4645C77.4572 80.2984 77.3536 80.228 77.1286 80.219C77.1273 80.219 77.126 80.2187 77.1247 80.2183C77.1156 80.2162 77.1021 80.2129 77.0426 80.2749C76.9575 80.3636 76.8869 80.4727 76.7691 80.6546C76.7335 80.7095 76.6937 80.7711 76.6478 80.8408C76.4786 81.0978 76.2371 81.4431 75.8778 81.7093C75.4942 81.9933 75.0177 82.1588 74.4297 82.1354C73.3194 82.0913 72.6599 81.5531 72.1699 81.0769C72.0879 80.9972 72.0135 80.9234 71.9446 80.8551C71.5801 80.4938 71.3725 80.2881 71.037 80.1884C70.8047 80.1195 70.7255 80.1378 70.7145 80.1404C70.6909 80.1458 70.6621 80.1555 70.5017 80.2629C70.4957 80.2669 70.4896 80.271 70.4833 80.2752C70.3336 80.3756 70.1062 80.5279 69.7895 80.645C69.4568 80.7679 69.0598 80.8411 68.5524 80.8411C68.3715 80.8411 68.2124 80.7849 68.1277 80.7518C68.0224 80.7108 67.9149 80.6573 67.8118 80.5989C67.6051 80.4819 67.3749 80.3216 67.1575 80.1323C66.9417 79.9444 66.7171 79.7095 66.5411 79.4377C66.3681 79.1706 66.209 78.8159 66.209 78.4058C66.209 77.9762 66.5514 77.628 66.9738 77.628C67.3961 77.628 67.7385 77.9762 67.7385 78.4058C67.7385 78.4058 67.7385 78.4057 67.7385 78.4058C67.7387 78.4086 67.7433 78.4658 67.8185 78.5821C67.8934 78.6977 68.0092 78.826 68.152 78.9503C68.2931 79.0731 68.4395 79.1738 68.5559 79.2397C68.5908 79.2595 68.6194 79.2741 68.6412 79.2843C68.9472 79.2767 69.1392 79.23 69.2672 79.1828C69.41 79.13 69.5087 79.0651 69.6611 78.9632C69.6666 78.9595 69.6722 78.9558 69.6779 78.9519C69.8213 78.8557 70.0584 78.6967 70.375 78.6235C70.7176 78.5442 71.0729 78.5784 71.4657 78.6951C72.2021 78.9137 72.7128 79.4324 73.0684 79.7935C73.125 79.851 73.1777 79.9045 73.2267 79.9522C73.6098 80.3245 73.928 80.5586 74.4894 80.5809C74.7372 80.5907 74.8748 80.5276 74.9775 80.4516C75.1044 80.3576 75.2214 80.2113 75.3769 79.9752C75.3984 79.9425 75.4221 79.9055 75.4479 79.8652C75.5741 79.6684 75.7489 79.3958 75.9481 79.1883C76.2303 78.8941 76.6336 78.6424 77.1883 78.6645C77.8929 78.6925 78.4141 79.063 78.6937 79.2618C78.7429 79.2967 78.7845 79.3263 78.8184 79.3478C78.9551 79.4347 79.0285 79.4601 79.0929 79.4671C79.1546 79.4738 79.2875 79.4717 79.5424 79.3545C79.8929 79.1933 80.0846 78.9358 80.195 78.7044C80.251 78.587 80.2837 78.4803 80.3018 78.4061C80.3107 78.3694 80.3158 78.3422 80.3182 78.3274C80.3191 78.3221 80.3196 78.3185 80.3198 78.3168C80.3676 77.8942 80.741 77.5883 81.1582 77.6321ZM68.6891 79.3041C68.6892 79.3042 68.6861 79.3034 68.6795 79.3009C68.6857 79.3026 68.689 79.3039 68.6891 79.3041Z" fill="black"/>
</svg>
